<?xml version="1.0" encoding="utf-8"?>
<!-- Generator: Adobe Illustrator 24.3.0, SVG Export Plug-In . SVG Version: 6.00 Build 0)  -->
<svg version="1.1" id="Layer_1" xmlns="http://www.w3.org/2000/svg" xmlns:xlink="http://www.w3.org/1999/xlink" x="0px" y="0px"
	 viewBox="0 0 424 214.3" style="enable-background:new 0 0 424 214.3;" xml:space="preserve">
<style type="text/css">
	.st0{opacity:0.18;fill:#3F72AF;enable-background:new    ;}
	.st1{fill:#112D4E;}
	.st2{fill:none;stroke:#112D4E;stroke-width:1.91;stroke-miterlimit:10;}
</style>
<path class="st0" d="M314.4,4.5c-17.6,0-34.9,4.6-50.2,13.4C233,0,194.7,0,163.6,18C115.3-9.8,53.7,6.7,25.9,54.9
	S14.6,164.8,62.8,192.6c31.2,18,69.6,18,100.8,0c31.1,18,69.4,18,100.6,0.1c48.3,27.7,109.9,11.1,137.6-37.2s11.1-109.9-37.2-137.6
	C349.3,9.1,332,4.5,314.4,4.5z M213.6,105.3c0-2,0.1-3.9,0.2-5.9c0.1,2,0.2,3.9,0.2,5.9s-0.1,4-0.2,5.9
	C213.6,109.3,213.6,107.3,213.6,105.3z"/>
<path class="st1" d="M238.2,121.8c-0.1,0.4-0.1,0.8-0.2,1.3c0.1,0.1,0.2,0.4,0.4,0.6c0.4,0.6,0.6,0.6,1.3,0.5c0.3,0,0.7-0.1,1-0.1
	c0.3,0,0.6,0,0.8-0.1c0.6-0.4,1.3-0.6,2-0.6c0.5-0.1,1.1-0.3,1.6-0.5c0.1,1.3-0.2,2.6-0.8,3.8c-0.3,0.6-0.6,1.3-0.9,2
	c-0.3,0.9-0.6,1.7-1.1,2.5c-0.8,1.2-1.7,2.3-2.9,3.1c-1.2,0.9-2.1,2.1-2.7,3.4c-0.3,0.6-0.7,1.1-1.2,1.5c-0.3,0.3-0.6,0.7-0.8,1.1
	c-0.3,0.7-0.4,1.4-0.6,2.1c-0.2,0.4-0.1,0.9,0.2,1.3c0.4,0.3,0.3,0.7,0.2,1.1c-0.3,0.9-0.1,1.9,0.5,2.6c0.2,0.2,0.3,0.4,0.3,0.6
	c0.1,1.1,0.2,2.1,0.2,3.1c0,0.7,0,1.5-0.1,2.2c-0.2,0.8-0.7,1.5-1.4,1.9c-0.8,0.5-1.7,0.9-2.5,1.2c-0.3,0.5-0.7,1-1.2,1.5
	c-0.4,0.3-0.6,0.8-0.3,1.3c0.4,1.3,0.7,2.6,0.7,3.9c0,0.4-0.2,0.8-0.6,0.9c-0.4,0.2-0.8,0.3-1.2,0.5s-0.6,0.4-0.9,0.5
	c0.3,0.8,0.3,1.6,0.1,2.3c-0.2,0.4-0.2,0.8-0.2,1.2c-0.6,0.4-1.1,1-1.4,1.6c-0.6,0.9-1.2,1.7-1.9,2.5c-0.1,0.1-0.3,0.2-0.4,0.3
	c-0.8,1.1-2,1.7-3.2,1.7c-0.9,0-1.9,0.1-2.8,0.3c-0.3,0.1-0.7,0-1,0.2c-0.4,0.4-1,0.4-1.5,0c-0.2-0.1-0.4-0.2-0.7-0.2
	c-0.2-0.4-0.3-0.7-0.3-1.1c0-0.3-0.2-0.6,0.1-1c0.2-0.4,0.2-0.9,0-1.3c-0.4-1.1-0.9-2.2-1.3-3.2c-0.1-0.1-0.1-0.4-0.2-0.4
	c-0.8-0.4-0.9-1.2-1.1-1.9c-0.2-1.2-0.4-2.5-0.4-3.8c0-1.1-0.4-2.1-1-3c-0.2-0.3-0.3-0.6-0.4-1c0-0.6-0.3-1.1-0.7-1.6
	c-0.1-0.1-0.3-0.2-0.3-0.4c0-1.1-0.3-2.1,0.1-3.2c0.2-0.5,0.3-1,0.5-1.5c0.2-0.6,0.4-1.1,0.7-1.6c0.5-0.8,0.6-1.8,0.2-2.6
	c-0.2-0.5-0.3-1-0.2-1.5c0.1-0.6,0-1.3-0.2-1.9c-0.3-0.9-0.6-1.8-0.9-2.8c-0.1-0.2-0.2-0.5-0.4-0.7c-0.6-0.7-1.1-1.3-1.7-2
	c-0.4-0.5-0.6-1-0.9-1.6c0.4-0.8,0.6-1.6,0.6-2.4c0.1-0.6,0.2-1.2,0.3-1.8c0.2-1-0.4-1.9-1.4-2.1c0,0,0,0,0,0
	c-0.2-0.1-0.4-0.1-0.6,0.1c-0.2,0.1-0.5,0.2-0.7,0.2c-0.6,0.1-1.2-0.2-1.1-0.8c0.2-0.9-0.5-1.2-0.9-1.4c-0.6-0.4-1.4-0.4-2,0
	c-0.7,0.6-1.6,0.5-2.3,0.8c-0.7,0.3-1.5,0.5-2.2,0.7c-0.4,0.2-0.8,0.2-1.2,0c-0.7-0.4-1.6-0.3-2.2,0.2c-1,0.8-1.9,0.6-2.8-0.5
	c-0.7-0.8-1.5-1.4-2.3-2c-0.7-0.5-0.9-1.3-1.2-2c-0.3-1.1-0.9-2.1-1.6-2.9c-0.3-0.3-0.5-0.7-0.9-1c-0.2-0.2-0.3-0.4-0.3-0.7
	c-0.2-0.7-0.3-1.4-0.5-2.1c0.8-1.5,1-3.3,0.6-5c0-0.2,0-0.3,0-0.5c0.1-0.5,0-1.1-0.3-1.6c-0.2-0.4-0.2-1,0.1-1.4
	c0.7-1.3,1.3-2.7,2-4c0.4-0.8,1-1.6,1.7-2.2c1-0.6,1.8-1.4,2.3-2.4c0.3-0.5,0.3-1,0.2-1.5c-0.3-1.3,0.4-2.6,1.5-3.3
	c0.8-0.3,1.4-1,1.6-1.9c0.1-0.5,0.2-1,0.8-1.2c0.3,0.9,1,0.8,1.8,0.7c0.3,0,0.6-0.2,0.9,0c0.2,0.1,0.5,0,0.7-0.1
	c0.4-0.6,1.1-0.6,1.7-0.9l1.1-0.6c0.1-0.1,0.3-0.1,0.4-0.2c1-0.1,1.9-0.1,2.9-0.1h0.4c0.4,0,0.8-0.2,1.1,0s0.7-0.4,1.1-0.1
	c0.1,0.1,0.3,0.1,0.4,0c0.8-0.3,1.8-0.2,2.5,0.4c0-0.1,0,0,0,0c-0.4,0.5-0.5,1.1-0.3,1.7c0.1,0.4-0.1,0.9-0.4,1.2
	c-0.3,0.4-0.3,0.7,0.2,1c0.2,0.1,0.3,0.3,0.5,0.4c0.3,0.2,0.6,0.4,1,0.5c1,0,2,0.5,2.6,1.3c0.6,0.7,1.4,0.8,2.1,1.1
	c0.4,0.1,0.9,0.2,1.3,0.3c0.9-0.7,0.9-0.7,0.5-1.7c0.2-0.2,0.4-0.5,0.6-0.8c0.6-0.5,1.5-0.5,2.1,0c0.4,0.3,0.9,0.5,1.4,0.6
	c1,0.4,2,0.8,3,1.1c1.1,0.3,2.3,0.3,3.4-0.2c0.1-0.1,0.3-0.1,0.3-0.1c0.4,0.6,1.1,0.2,1.6,0.2c0.9,0.1,1.2-0.3,1.6-1.5
	c0.2-0.7,0.5-1.4,0.7-2.1c0.1-0.4,0.1-0.8,0-1.1c0-0.6-0.1-1.3-0.1-2c-0.4,0.2-0.9,0.5-1.4,0.7c-0.5,0.4-1.2,0.3-1.8-0.1
	c-0.3-0.2-0.7-0.4-1.1-0.5l-0.9,1l-2.4-1.6c-0.2-0.8-0.2-0.8-0.6-1.1c0.1-0.3,0.2-0.6,0.3-0.9c0.1-0.3,0-0.6-0.3-0.7
	c0,0-0.1,0-0.1,0c-0.1,0-0.2-0.4-0.1-0.5c0.2-0.5-0.1-0.9-0.3-1.2h-2.1l0.4,0.7l-0.7,0.4l-0.5-0.5c-0.1,0.2-0.2,0.4-0.2,0.5
	c0.1,0.2,0.2,0.5,0.3,0.7c0.1,0.2,0.1,0.5,0.1,0.7c0.6,0.3,1.1,0.7,1.4,1.2l-0.6-0.1c-0.1,0.2,0,0.9-0.6,0.4c0,0.2,0,0.6-0.1,0.6
	c-0.5,0.2-0.9,0.6-1.6,0.3c0.3-0.4-0.7-1,0.3-1.4l-0.5-0.1c-0.3-0.7-0.8-1.4-1.2-2.1c-0.5-0.4-0.6-1.1-0.4-1.7c0-0.3,0-0.5,0-0.8
	c-1.2-0.5-2.1-1.5-3.4-2.1c-0.7-0.3-0.9-1-1.1-1.7c0-0.2-0.1-0.4-0.1-0.6l-0.9,0.9l-0.3-1.4l-0.8,0.2c-0.1,0.3-0.1,0.7-0.2,1
	c-0.2,0.4-0.2,0.8,0.3,1c0.5,0.2,1,0.7,1.2,1.3c0.3,0.7,0.7,1.3,1.6,1.3c0.1,0,0.2,0,0.3,0.1c0.3,0.9,1.3,0.9,1.8,1.6
	c0.2,0.2,0.3,0.4,0.2,0.7l-1.1-0.6c-0.4,0.2-0.5,0.6-0.3,1c0,0.1,0.1,0.1,0.1,0.2c0.4,0.8,0,1.7-1,2.2c0.1-0.4,0.2-0.6,0.2-0.9
	c0.2-0.8,0.2-1.5-0.6-2c-0.4-0.2-0.6-0.6-0.9-0.9c-0.2-0.2-0.5-0.3-0.8-0.4c-0.9-0.4-1.7-1.1-2.1-2c-0.1-0.3-0.3-0.5-0.3-0.8
	c-0.2-0.7-0.8-1.3-1.6-1.4c-0.6,0.5-1.3,1-1.9,1.4c-0.2,0.1-0.5,0.1-0.7,0.1c-0.2-0.1-0.5-0.2-0.7-0.3c-0.5-0.3-1.2-0.1-1.5,0.5
	c-0.1,0.2-0.1,0.5-0.1,0.8c0.1,0.4-0.1,0.7-0.4,0.9c-1.1,0.6-2.1,1.4-2.7,2.6l0.4,0.8c-0.8,0.4-0.8,1.6-1.7,1.9
	c-0.2,0.1-0.3,0.2-0.4,0.4c-0.2,0.4-0.7,0.7-1.1,0.6c-0.5-0.1-1,0-1.5,0.3c-0.7,0.4-0.7,0.3-1.1-0.3c-0.2-0.5-0.8-0.7-1.3-0.6
	c-0.4,0-0.7,0-1.1-0.1c-0.1-0.8-0.3-1.4-0.4-2.1c0-0.3,0-0.6,0.1-0.9c0.6-1.4,0.6-3.1-0.2-4.5c0.8-0.2,1.4-1,2.4-0.6
	c0.7,0.1,1.5,0.2,2.2,0.2c0.6,0.1,1.1,0.2,1.6,0.3c0.5,0.2,1-0.1,1.2-0.6c0-0.1,0.1-0.2,0.1-0.3c0.1-0.7,0.1-1.3,0-2
	c-0.1-0.3-0.2-0.5-0.4-0.7c-0.4-0.3-0.6-0.6-0.8-1c-0.5-0.8-1.2-1.3-2.1-1.6v-0.9c0.5,0.1,0.9-0.4,1.5,0c0.2,0.2,0.8-0.1,1.4-0.2
	l-0.2-1.4c0.2,0,0.4,0,0.4,0.1c0.1,0.3,0.4,0.4,0.6,0.3c0.3,0,0.5-0.1,0.7-0.2c0.4-0.3,0.8-0.6,1.1-0.9l0.1-0.9
	c0.8-0.5,1.6-0.7,2.5-0.7c0.1-0.3,0.2-0.6,0.3-0.9c0.3-0.9,1.1-1.4,2-1.4c0.5,0,1.1-0.1,1.6-0.2c0.2-0.1,0.4-0.4,0.4-0.6
	c0-0.8-0.1-1.5-0.4-2.2c-0.2-0.6-0.3-1.1-0.3-1.7c0.6,0,1.1-0.4,1.3-0.9l-1.1,0.4c0-0.1,0-0.2,0-0.3c0.2-0.2,0.5-0.3,0.7-0.4
	s0.4-0.2,0.7-0.4s0.4-0.3,0.7-0.5c0.2,0.9-0.9,1.8,0.3,2.3l-0.8,1.1c0.6,0.4,0.6,0.4,0.6,0.9l-0.7-0.3c0.2,1.2,0.2,1.2,1.4,2
	c0.1-0.1,0.2-0.1,0.3-0.2c0.4-0.4,1.1-0.6,1.6-0.3c0.9,0.3,1.8,0.3,2.7-0.2c0.5-0.2,1-0.4,1.5-0.6c0.3-0.1,0.5,0.1,0.4,0.5
	c0.7,0,1.2-0.1,1.2-1c0-0.2,0.5-0.4,0.9-0.6c0.1-2.3,0.3-2.9,1.2-3.4c0.7,1,0.7,1,1.5,0.8c0.4-1-0.2-2-0.1-3.1
	c0.7-0.3,1.5-0.5,2.3-0.5c0.4,0,0.8-0.4,1.3,0c0,0,0.2,0,0.3-0.1c0.5-0.6,1.4-0.4,2-0.7c-0.4-0.8-1.7-0.2-1.9-1.3
	c-0.8,0.2-1.5,0.4-2.2,0.6c-0.2,0.1-0.5,0.2-0.7,0.4c-0.4,0.3-0.8,0.7-1.3,0.1c-0.1-0.1-0.4,0.1-0.6,0.1c-0.3-0.5,0.2-0.5,0.5-0.7
	c-0.2-0.2-0.4-0.3-0.6-0.5c-0.6-0.2-0.8-0.5-0.7-1c0.2-0.7,0-1.4-0.4-2c0.4-0.5,0.9-1,1.4-1.4c0.4-0.4,0.8-0.8,1.1-1.3
	c0.1-0.1,0.1-0.4,0.2-0.4c0.7-0.3,0.6-0.9,0.4-1.5c-0.6-0.6-1.4-0.2-2.1-0.4c-0.7,0.7-1.6,1.3-1.1,2.5c-0.3,0.6-0.9,1.1-1.6,1.3
	c-1,0.3-1.1,1.3-1.8,1.7c-0.1,0.6-0.2,1.3-0.2,1.9c0,0.3,0,0.7,0.1,1c0.3,0.1,0.6,0.2,0.9,0.4c0.3,0.3,0.8,0.6,0.6,1.1
	s-0.4,1.2-1.2,1.3s-0.7,0.1-0.8,0.9c0,0.4-0.1,0.8-0.2,1.2s-0.1,0.9-0.1,1.5c-0.2,0.1-0.5,0.1-0.7,0.2c-1.1,0.1-1.1,0.1-1.4,1.2
	l-1.2,0.1c-0.1-0.4-0.1-0.8,0-1.1c0.3-0.6,0-1-0.3-1.4s-0.8-0.8-0.6-1.5c0.1-0.3-0.3-0.8-0.5-1.2c-0.9,0.4-1.9,0.9-2.8,1.4
	c-0.4,0.2-0.8,0.2-1.2,0c-0.4,0-0.7-0.3-0.8-0.6l0.5-1.1l-1-0.2l1.1-1.3c-0.7,0.2-0.9-0.2-1.3-0.5c0.4-0.3-0.1-0.9,0.6-1.1l-0.7-0.1
	V60l0.6-0.1l-0.2-0.4l1.3-0.3l-0.2-0.5c0.4-0.1,1.1,0.1,0.8-0.7l1.4-0.6l-0.2-0.8c0.4,0.1,0.8,0.3,1.2,0.4c0.3,0.2,0.5,0.2,0.7-0.2
	l-0.7-0.1c0.8-0.8,1.2-1.8,2.3-2c-0.1-0.9,0.9-0.8,1.3-1.4v-0.8c0.8-0.4,1.5-1,2.1-1.6l-0.3-1l0.8,0.1l-0.3-0.6l0.9-0.5l0.3-1.2l0,0
	l1.1-0.5c0.1-0.2-0.5-0.8,0.4-0.5c0.1,0.1,0.4-0.2,0.7-0.4l0.7,0.3c0.1-0.3,0.1-0.7,0.6-0.5l-0.5-0.4c0.1-0.4,0.6-0.3,1.5,0.3
	c0.2-0.2,0.5-0.4,0.8-0.6s0.3-0.6,0.7-0.2l0.2-0.6l1.1,0.4l-0.6,1.1l0.2,0.1l1.2-1.7l0.1,1l1-1.6c0.6,0.3,0.6,0.3,0.4,1l0.7-0.4
	l1.7,1.1l-1.4,0.7c0.9,0.2,1.9-0.1,2.8,0.2l-0.2,0.4c2.5,0.5,4.9,1.6,7,3.1c0.8,0.6,0.9,1.2,0.1,1.9c-0.6,0.7-1.5,0.9-2.3,0.8
	c-1.7-0.4-3.3-1-4.8-1.9c0,0.2,0.1,0.4,0.2,0.6c0.1,0.3,0.4,0.5,0.5,0.8c0.2,0.3,0.6,0.6,1,0.7c0.8,0.3,0.7,0.3,0.8,1.1
	c0.1,0.6,0.2,1.1,0.3,1.6c0.2,0.1,0.5,0.1,0.6,0.2c0.2,0.7,0.9,0.5,1.3,0.7c0.1,0.1,0.5-0.1,0.6-0.2c0.1-0.3,0-0.6-0.1-0.8
	c-0.2-0.3-0.5-0.5-0.7-0.7l0.3-0.8c0.1,0,0.2,0,0.3,0c0.6,0.6,1.5,1,2.4,1l-0.9-1.3l1.9-1.5L238,53c0.2-0.4,0.4-0.8,0.6-1.3
	c0-0.1,0.1-0.2,0.1-0.3c-0.7-0.8,0.2-1.3,0.4-2l-0.6-0.8c1.3,0.1,2.4,0.4,2.7,1.8c-1.4,0.6-1.4,0.6-0.9,1.9l1.4-0.4
	c0.1-0.2,0.1-0.2,0.1-0.3c-0.1-0.6,0.3-1.2,0.9-1.4c0.9-0.3,1.6-0.8,2.5-1c0.6-0.1,1.2-0.5,1.6-0.9l0.7,0.9l-0.6,0.3
	c0.6,0.1,1.3,0,1.8-0.4c0.5-0.5,1.4-0.5,1.9-0.1l1.4-0.6l0.5,1.3l0.4-0.9l0.8,0.1c0.5-0.6,0-1.1-0.1-1.7c0.3-0.4,0.8-0.5,1.3-0.4
	c0.3,0.1,0.6-0.2,0.8-0.2l1.4,0.5c0.1,0,0.2,0.1,0.3,0.1c0.1,0.3,0.3,0.4,0.6,0.5c0.6,0.2,1.1,0.6,1.5,1c0.3,0.3,0.5,0.5,0.8,0.8
	c0.4-0.3,0.6-0.7,0.2-1.2c-0.1-0.4-0.2-0.7-0.2-1.1l-0.9-0.4c0.2-0.5,0.3-0.9,0.4-1.4c0-0.5-0.1-0.9-0.3-1.4
	c0.8-0.6,1.5-1.3,1.9-2.2c0.2-0.4,0.4-0.8,0.9-0.9c0.6,0,1.3-0.3,1.9,0.1c0.3,0.2,0.4,0.6,0.4,0.9c-0.1,0.7-0.2,1.4-0.5,2
	c-0.2,0.3-0.1,0.8,0.1,1.1c0.4,0.3,0.5,0.8,0.3,1.2c-0.4,0.9-0.1,2,0.7,2.6c-0.4,0.8,0,1.8-0.9,2.5c-0.4,0.2-0.8,0.4-1.1,0.5
	c-0.5,0-0.9,0-1.4,0c0.1,0.4,0.5,0.8,0.9,0.7c0,0,0.1,0,0.1,0c0.7-0.2,1.5,0.3,1.7,1c0.2-0.5,0-1-0.3-1.4c0.3-0.1,0.5-0.2,0.8-0.3
	c0.4,0,0.8-0.3,0.9-0.8c0.1-0.6,0.5-1.1,0.3-1.8c0-0.3,0.1-0.6,0.3-0.8c0.5-0.4,1.1-0.6,1.7-0.5c0.4,0.7,0.6,1.5,0.4,2.3
	c-0.1,0.6,0.2,0.8,0.8,0.6c0.1,0,0.3,0,0.4,0c0.1,0,0.3,0,0.4-0.1l-0.4-0.2c-0.9-0.4-1-0.5-0.2-1.3c-0.2-0.4-0.4-0.9-0.6-1.3
	c-0.5-0.4-1.1-0.6-1.8-0.5l-1.3,0.4c-0.2-0.5-0.3-1.1-0.2-1.7c0.1-0.4-0.2-0.8-0.3-1.3h-0.2c0.3-0.4,0.5-0.9,0.8-1.3
	c0.3-0.7,0.4-1.4,0.3-2.1c0.5,0.3,0.7,0.8,0.5,1.3c-0.3,0.7,0.3,1.2,0.3,1.9c0,0.1,0.3,0.3,0.5,0.3c0.5,0,1.1-0.1,1.9-0.2l-1.4-0.9
	c0.3-0.8,0.4-0.8,1.5-0.3c0.6-0.2,0.4-0.5,0-0.8c1-0.6,1.3-0.7,2.2,0c0.5,0.5,1.2,0.7,1.9,0.7c0.1,0,0.2,0.1,0.5,0.2
	c-1,0.6-0.7,1.7-1.2,2.6c0.9-0.3,0.8,1.1,1.8,0.7l-0.9-0.7c0.6-0.5,0.5-0.5,0.4-1.3c0-0.3,0-0.6,0.1-0.9c0-0.2,0-0.5-0.1-0.6
	c-0.4-0.3-0.8-0.5-1.3-0.7c-0.9-0.3-1.1-0.6-0.9-1.5c0-0.2,0.1-0.3,0.1-0.5c0-0.6,0.4-0.9,1-0.9c0.9,0,1.7-0.5,2.6-0.1
	c0.2,0.1,0.5-0.1,0.8-0.1c0.8-0.2,0.8-0.2,1.1,0.6c0.3-0.4,0.2-0.8-0.6-1.6l0.5-0.4l-0.6-0.5l0.9,0.2c-0.1-0.4,0.7-0.5,0.4-1
	c0.6-0.2,1.2-0.5,1.9-0.6c0.8-0.2,1.6-0.2,2.3-0.4c0.9-0.3,1.9-0.5,2.9-0.5c0.5,0.1,0.2-0.5,0.5-0.5h0.8l-0.3,1.1
	c1,0.2,1.5-0.5,2.2-0.9c0.1,0,0.2-0.2,0.2-0.2c0.5,0,1.1,0,1.7,0l-0.4-0.6c0.4-0.4,0.7-0.8,1.1-1.2c0.1-0.1,0.3-0.2,0.4-0.2
	c0.5,0,1-0.2,1.5-0.2s0.8,0.3,1.3,0.5l-0.2,0.6l1.5,0.4V35c0.6-0.3,1.3-0.6,2-0.8c0.7-0.1,1.4-0.1,2.1,0c0,0.5,0.4,1,0.9,1
	c0.4,0.3,0.7,0.8,0.8,1.3c-0.1,0.2-0.2,0.4-0.4,0.6c0.1,0.1,0.2,0.2,0.3,0.3c0.1,0.2,0.1,0.4,0.2,0.6c-0.6,0.2-1.1,0.4-1.7,0.6
	s-1.3,0.3-1.9,0.5c-0.2,0.1-0.6,0.3-0.6,0.5c-0.2,1-0.9,1.3-1.7,1.7c-0.5,0.3-1,0.6-1.4,0.9c0.8,0,1.3-0.6,2-0.6
	c0.6-0.1,1.2-0.3,1.7-0.6c-0.4-0.5-0.1-0.9,0.3-1.2c0.4,0.1,0.8-0.1,1.1,0.4c0.2,0.3,0.8,0.2,1.4-0.1l0.4,0.5c0.1,0,0.2-0.1,0.2-0.2
	c0.6-0.7,1.6-0.9,2.5-0.5c0.5,0.1,1.1,0.1,1.6,0.2v1c0.5,0.3,1.1,0.4,1.7,0.6c0.8,0,1.6,0.1,2.3,0.5c0.6,0.3,1,0.1,1.3-0.7
	c-0.4-0.1-0.7-0.3-1-0.5c-0.3-0.2-0.3-0.5-0.2-0.8c0.1-0.1,0.2-0.2,0.3-0.2c0.5-0.3,1.2-0.3,1.7,0c0.4,0.3,0.8,0.5,1.2,0.7
	c-0.2,0.7-0.9,0.8-1.4,1c0,1,0,1,1,0.8c0.2,0.2,0.1,0.8,0.6,0.7c0.3,0,0.6-0.1,1-0.2l-0.3-0.4h0.7l-0.1,0.7c0.5,1.2,1.6,2,2.9,2.2
	l0,0.7c1.1-0.7,0.8-1.9,1.4-2.8l0.7,1c0.3-0.1,0.5-0.2,0.7-0.3c0.5-0.4,1.2-0.4,1.6,0.1c0.4,0.3,0.8,0.5,1.3,0.7c0.2,0,0.3,0,0.5,0
	l0.3-0.8l1.1,0.6l0.2-0.1c-0.5-0.6-0.1-1.3-0.1-2l0.9-0.1v-0.5l4,0.8v0.1l-0.8,0.2c0.2,0.5,0.6,0.3,0.9,0.3c0.4,0,0.7,0,1.1-0.1
	c-0.1,0.2-0.2,0.5-0.2,0.5c-0.8-0.1-0.8,0.5-1,1.1c0.5,0,0.8-0.1,1-0.5c0.1-0.2,0.2-0.3,0.3-0.5c0.2-0.3,0.3-0.8,0.8-0.8
	c0.7,0,1.4,0.2,2,0.6c0.1,0.1,0.1,0.3,0.1,0.5c-0.2,0.1-0.5,0.2-0.7,0.2c0.2,0.4,0.5,0.6,0.9,0.5c-0.2,0.5-0.4,0.9-1.1,0.7
	c1.2,0.3,2.4,0.3,3.6,0c0.3-0.1,0.6-0.1,0.9-0.1c0.1,0,0.3,0.1,0.4,0c1-0.6,2.2,0.2,3.3-0.3c0.3-0.1,0.7,0.2,1.1,0.4
	c0.3,0.2,0.6,0.5,0.9,0.7c-0.4,0.9,0.7,1.2,0.8,2.1c0.1-0.6,0.7-1.1,1.3-1.2c0.6-0.2,1.3-0.2,1.9,0.1c0.1,0.1,0.4,0,0.5,0
	s0.6-0.1,0.9,0c0.6,0.3,1.3,0.3,1.8-0.1l0.9,1.7c0.4,0,0.9-0.2,1.2-0.5c0.5-0.5,0.5-0.5,0.2-1.2c-0.1-0.3-0.1-0.6-0.2-0.8
	c1.3,0.1,2.5,0.1,3.8,0.2c0.6,0.1,1.2,0.3,1.7,0.7c0.3,0.2,0.6,0.3,0.9,0.2c0.6-0.1,1.3,0.2,1.7,0.6c0.4,0.6,0.9,1.1,1.6,1.3
	c0.3,0.1,0.5,0.4,0.7,0.6c0.5,0.4,1.1,0.8,1.7,1.1c0.6,0.2,1,0.8,1.1,1.5c0.2-0.2,0.5-0.3,0.7-0.4c0.5-0.2,1.1-0.1,1.6,0.3
	c0.6,0.5,1.1,1,1.7,1.5l-0.6,0.8l-1.5-0.1l0.5,0.5c-0.2,0.3-0.8,0.6,0,1.2c-0.6,0.2-1.3,0.1-1.8-0.2c-0.3-0.2-0.7-0.3-1-0.3
	c-0.3,0-0.6-0.3-0.7-0.6c-0.3-1-0.7-1.1-1.6-0.7c-0.5,0.2-0.5,0.2-1.3-0.2c0.1-0.4,0.3-0.8-0.2-1.1c-0.2,0.4-0.5,0.7,0,1.1
	c0.2,0.2-0.1,0.9-0.5,1.2c-0.6,0.4-1.3,0.4-1.9,0h-0.9c0.4,0.6,0.6,0,0.9,0l-0.4,0.9l0.6-0.1c0.4,0.6,0.7,1.2,1.1,1.9
	c0.2,0.2,0.1,0.6-0.2,0.7c-0.1,0.1-0.2,0.1-0.3,0.1c-0.2,0-0.4,0-0.6-0.1c-0.5-0.1-1.1-0.1-1.6,0c-1.6,0.5-3.1,1.4-4.3,2.4
	c-0.4,0.4-0.7,0.8-1.1,1.2c-0.2-0.2-0.4-0.4-0.5-0.6c-0.7-0.9-1.4-0.9-2.1,0c-0.2,0.3-0.5,0.5-0.8,0.9l-0.1-1.1l-1.1,0.8l-0.8-0.2
	c-0.5,0.7-1.1,1.4-1.6,2.2c-0.3,0.4-0.2,0.7,0.4,0.9c0.1,0.1,0.3,0.1,0.5,0.2c-0.1,0.3-0.2,0.5-0.4,0.7c-0.4,0.7-0.4,0.9,0.2,1.5
	c0.1,0.1,0.2,0.2,0.2,0.4c0,0.1-0.2,0.2-0.3,0.2c-1.3,0.3-1.5,0.8-0.7,2.1c-0.2,0.2-0.4,0.4-0.6,0.5c-1.2,0.2-1.6,0.7-1.6,1.9
	c0,0.1,0,0.1,0,0.2c-0.2,0-0.4,0.1-0.6,0.2c-0.2,0.1-0.4,0.4-0.4,0.6c0,1-0.7,1.4-1.5,2c-0.2-1.1-0.4-2.2-0.6-3.2
	c-0.1-0.7-0.2-1.3-0.3-2c-0.2-0.9-0.1-1.9,0.2-2.8c0-0.1,0.1-0.2,0.2-0.3c0.8-0.3,0.7-1,0.7-1.6c0.8-0.1,1.5-0.5,2.1-1.1
	c0.5-0.6,1.1-1.2,1.7-1.8c0.3-0.4,0.6-0.9,0.9-1.4c0.1,0,0.2-0.1,0.4-0.1c0.4-0.1,0.9-0.1,1.1-0.3c0.3-0.4,0.4-1,0.4-1.5
	c0-0.4,0.2-0.8,0.6-0.9c-0.2-0.4-0.6-0.3-0.9-0.2s-0.5,0.5-0.5,1.4c-1-0.1-1-0.1-1.7,0.7c-0.3,0.3-0.5,0.6-0.8,1l-0.6-0.8l0.4-0.8
	c-0.4-0.1-0.7-0.3-1.1-0.4c-1-0.1-1.9,0.2-2.5,1c-0.2,0.5-0.5,0.8-1,1c-0.7,0.3-0.8,0.9-0.9,1.5l0.8-0.1c0,0.2,0.1,0.3,0,0.3
	s-0.3,0.3-0.5,0.3c-0.7-0.1-1.2,0.3-1.9,0.5c-0.4,0.1-0.9,0.2-1-0.5l0.9-0.2l-0.5-0.7c-0.4,0-0.7,0.1-1.1,0.1
	c-0.4,0-0.8-0.1-1.1-0.2l-0.3,0.9l-2.1-0.4l-0.3,0.2c-0.1,0-0.1,0-0.1,0c-0.7-1.2-1.8-0.2-2.7-0.6c-0.5,0.3-0.9,0.6-1.4,0.9
	c-0.4,0.4-0.6,1.1-1,1.6c-0.3,0.3-0.6,0.7-1,0.9c-0.6,0.4-1.2,1-1.5,1.7c-0.2,0.6-0.9,0.9-1.3,1.4s-0.8,0.8-1.4,1.4l1.5,0.2
	c0,0.2,0.1,0.4,0.1,0.5c0,0.2,0,0.4,0,0.6l0.6-0.4l0.1,0.9c0.2-0.2,0.4-0.3,0.6-0.4c0.3-0.5,0.9-0.6,1.4-0.3
	c0.1,0.1,0.2,0.2,0.3,0.3c0.4,0.4,0.8,0.8,1.2,1.2l-0.6,0.1c0.2,0.7,0.1,1.4-0.3,2c-0.2,0.5-0.2,1-0.1,1.5c0.1,0.8-0.1,1.5-0.4,2.2
	c-0.3,0.5-0.6,0.9-1,1.3c0,0.1-0.1,0.1-0.1,0.1c-0.4,1.6-1.7,2.6-2.6,3.8c-0.4,0.6-0.9,1.2-1.3,1.8c-0.6,0.6-0.8,0.6-1.4,0l-0.5-0.6
	c0,0-0.1,0-0.2,0c-0.5,0.5-1.1,1-1.7,1.5c-0.4,0.2-0.6,0.7-0.5,1.1c0.1,0.3-0.1,0.7-0.3,0.9c-0.3,0.3-0.7,0.6-1.1,0.8
	c-0.4,0.2-0.6,0.6-0.4,1l0.7,1.2c0.1,0.3,0.3,0.6,0.5,0.9c0.4,0.7,0.6,1.5,0.5,2.3c0,0.5-0.4,1-0.9,1.1c-0.5,0.2-0.9,0.4-1.4,0.7
	c-0.1,0-0.2,0-0.4,0c0.3-1.4,0.5-2.8,0.3-4.2H312l-0.6-0.8c0.1-0.2,0.2-0.4,0.3-0.5c0.3-0.3,0.3-0.8,0-1.1c-0.1-0.1-0.1-0.1-0.2-0.1
	c-0.5-0.3-1-0.3-1.5,0l-1.4,1.1c-0.4-0.9,0.3-1.6,0.7-2.3c-1-0.5-1-0.5-1.6,0.3c-0.2,0.3-0.5,0.5-0.7,0.8c-0.1,0.1-0.4,0.2-0.5,0.4
	c-0.3,0.5-0.8,0.7-1.4,0.6c-0.4,1.1,0.6,1.5,0.8,2.4c0.6-0.3,1.2-0.6,1.8-0.8c0.7,0,1.4,0.1,2,0.3c-0.3,0.3-0.5,0.6-0.7,0.6
	c-1,0.4-1.8,1.1-2.4,2.1c-0.3,0.4-0.2,1,0.1,1.4c0.4,0.7,0.8,1.4,1.2,2c0.1,0.2,0.2,0.4,0.4,0.7l-1,0.2c0.8,0.1,1.3,0.3,1.4,1
	l-0.7,0.6l1.3,0.4c-0.5,0.3-0.1,1-0.7,1.2c-0.1,0,0,0.5,0,0.7c-0.3,0.5-0.5,0.9-0.8,1.3c-0.1,0.2-0.3,0.4-0.5,0.6
	c-0.4,0.2-0.5,0.6-0.4,1c0,0,0,0,0,0c0.1,0.3,0,0.5-0.2,0.7c-0.7,0.8-1.4,1.5-2.2,2.1c-0.1,0.1-0.3,0.2-0.3,0.2
	c-0.1,1.2-1.3,0.7-1.9,1.1c-0.1,0-0.3-0.1-0.5-0.2c-0.4,0.5-0.9,0.9-1.6,1c-0.6,0.2-1.2,0.6-1.6,1c-0.1,0.1-0.1,0.5-0.1,0.7
	c-0.6,0-0.8-0.2-0.8-1.3c-0.5-0.3-0.9-0.1-1.3,0.2c-0.7,0.5-1.3,1.2-1.9,1.9c-0.4,0.4-0.4,1-0.2,1.5c0.2,0.4,0.4,0.8,0.7,1.1
	c0.9,0.8,1.5,1.7,2,2.8c0.6,1.1,0.8,2.3,0.6,3.6c-0.1,0.5-0.4,0.9-0.8,1.2c-0.6,0.6-1.4,0.9-2.2,0.8l0.4,0.6c-0.8,0-0.5,1.1-1.2,1.1
	c-0.3-0.3-0.4-0.7-0.3-1.1c0.1-0.4-0.1-0.8-0.4-0.9c0,0,0,0-0.1,0c-0.5-0.2-0.7-0.6-1-1c-0.6-0.8-1.2-1.5-1.8-2.2
	c-0.1-0.1-0.4-0.1-0.5-0.1c-0.3,1.3-0.5,2.6-0.8,3.9c0,0.3,0,0.6,0.2,0.9c0.2,0.5,0.4,0.9,0.7,1.4c0.1,0.1,0.1,0.3,0.2,0.3
	c0.8,0.4,1,1.1,1.6,1.7c0.6,0.5,1,1.4,0.9,2.2c-0.1,0.9,0.4,1.5,0.7,2.3l-0.8,0.4l-0.3-0.1c-1.6-0.8-2-2.4-2.3-4
	c0-0.6-0.1-1.1-0.3-1.6c-0.2-0.5-0.5-1-0.9-1.4c-0.4-0.5-0.6-1.1-0.5-1.7c0.2-0.9,0.6-1.8,0.1-2.7c0.2-1.3-0.5-2.3-0.8-3.5
	c-0.2-0.8-0.3-1.8-1.1-2.3c-0.4,0.4-0.8,0.8-1.2,1.1c-0.2,0.1-0.6,0-1.1-0.1c0-0.3,0.1-0.7,0.1-1c0.3-0.6,0.2-1.2-0.1-1.8
	c-0.2-0.6-0.4-1.2-0.5-1.8l-0.6,0.2c-0.4-0.6-0.7-1.2-0.7-1.9c0-0.6-0.5-1.2-1.1-1.4c-0.5,0.2-0.4,0.7-0.3,1.1
	c-0.5,0.2-0.9,0.3-1.3,0.4c-0.2,0-0.4,0-0.5,0c-0.7-0.1-1.3,0.1-1.3,0.9c0,0.5-0.4,1-0.9,1.2c-0.6,0.2-1.1,0.7-1.4,1.2
	c-0.4,0.6-0.9,1.1-1.6,1.3c-0.2,0.1-0.5,0.2-0.5,0.4c-0.2,0.8-0.9,1.1-1.5,1.3c-0.3,0.1-0.5,0.4-0.4,0.7c0,1,0,1.9,0,2.8
	c0,0.3,0,0.5-0.1,0.8c-0.4,0.6-0.5,1.3-0.2,1.9c-0.4,0.5-0.6,1-1,1.4s-0.6,0.8-1.1,1.3c-0.3-0.9-0.9-1.4-1-2.2
	c-0.2-0.8-0.6-1.5-1-2.2c-0.2-0.5-0.4-1.1-0.6-1.6s-0.4-1.4-0.6-2.1c-0.3-1.3-0.6-2.6-0.8-3.9c-0.1-0.3-0.1-0.5-0.1-0.8
	c0-0.2-0.1-0.6,0-0.8c0.4-0.9,0-1.6-0.2-2.4c0,0.4-0.1,0.8-0.3,1.2c-0.3,0.3-0.7,0.5-1.1,0.7l-1.7-1.6l1.2-0.6v-0.2l-0.7-0.1
	c-0.4-0.1-0.9-0.1-0.9-0.7c0-0.1-0.1-0.2-0.2-0.3c-0.5-0.4-0.9-0.8-1.4-1.2c-0.2-0.3-0.4-0.6-0.6-1c-0.9,0.1-1.7,0.2-2.6,0.4
	c-1.6,0.1-3.1,0-4.6-0.3c-0.4-0.1-0.7-0.4-0.8-0.8c0-0.5-0.3-0.9-0.8-1.1c-0.2,0.1-0.5,0.2-0.7,0.4c-0.9,0.6-2.2,0.4-2.8-0.5
	c0,0,0,0,0,0c-0.7-0.9-1.3-1.9-1.7-3c-0.1-0.1-0.1-0.3-0.2-0.4c-0.4-0.1-0.7-0.2-1-0.2c-0.3-0.1-0.7,0.1-0.9,0.3
	c-0.3,0.3-0.1,0.6,0,0.9c0.4,1,1,2,1.7,2.9c0.1,0.2,0.2,0.5,0.2,0.7c0,0.2,0.1,0.5,0.1,1l0.9-0.9v1.6c0.4,0.9,1.1,0.1,1.6,0.4
	c0.7,0.4,1.1-0.2,1.5-0.6c0.5-0.4,0.9-0.9,1.3-1.4c0,0.1,0.1,0.3,0.1,0.4c-0.1,0.9,0.5,1.7,1.3,2c0.9,0.4,1.6,1.1,2,2
	c-0.4,0.7-0.7,1.5-1.2,2.3c-0.4,0.5-0.6,1.1-0.5,1.7c-0.5,0.2-1.1,0.3-1.2,0.9c-0.8,0.1-1.1,0.9-1.8,1.2c-0.4,0.2-0.8,0.3-1.2,0.4
	c-0.4,0.1-0.7,0.4-0.8,0.8c-0.2,0.4-0.5,0.7-0.9,0.9c-1,0.5-2,1.1-3.1,1.5c-0.6,0.3-1.2,0.6-1.9,0.6c-0.1,0-0.1,0-0.2,0.1
	C239.7,122,238.9,121.8,238.2,121.8c-0.2-1.2-0.7-2.4-0.6-3.6c0.1-0.7-0.1-1.3-0.6-1.8c-0.3-0.4-0.6-0.9-0.7-1.4
	c-0.2-0.7-0.6-1.2-1.2-1.6c-0.4-0.3-0.6-0.7-0.7-1.1c-0.2-0.7-0.3-1.4-0.3-2.1c0.1-0.4,0-0.8-0.2-1.1c-0.6-0.8-1.1-1.7-1.6-2.6
	c-0.3-0.7-0.8-1.3-1.1-1.9c-0.2-0.4-0.7-0.8-0.9-0.6c-0.5,0.4-0.8,0-1.2,0c0.1-0.5-0.2-1-0.7-1.3c0,0.5,0.3,1,0.7,1.2
	c0.2,1,0.6,2,1.1,2.9c0.5,0.6,0.8,1.4,0.8,2.1c0,0.5,0.2,0.9,0.5,1.2c0.9,0.8,1.2,2,1,3.2c-0.1,0.5,0.1,1,0.4,1.3
	c0.9,0.6,1.4,1.6,1.4,2.7c0,0.4,0.1,0.8,0.4,1.1c1,0.8,1.8,1.7,2.5,2.7C237.5,121.5,237.9,121.6,238.2,121.8z M275.7,47.2l0.6,0.4
	C276.3,47,276,47.1,275.7,47.2c-0.1-0.4-0.1-0.4-0.6-0.1L275.7,47.2z M292.4,36.3c-0.5,0.4-1.1,0.5-1.6,0.3l-0.2,0.7l0.6,0.2
	l0.5-0.4c0.2-0.1,0.3-0.2,0.5-0.3C292.2,36.6,292.3,36.5,292.4,36.3l0.7,0.1l-0.3-0.4L292.4,36.3z M270,80.5c-0.5,0-1,0-1.4,0
	c-0.8-0.2-1.6-0.1-2.4,0.3c-0.5,0.4-1,0.9-1.5,1.3l0.6,0.8c0.4-0.7,1.1-1.3,1.9-1.7c0.4-0.4,1-0.5,1.6-0.4c0.3,0.1,0.7,0.1,1,0
	C269.8,80.8,269.9,80.6,270,80.5c0.7,0.2,0.7,0.2,0.8-0.5L270,80.5z M232.7,83.1c0-0.1,0-0.2,0-0.2c0.5-0.1,0.6-0.5,0.8-0.9
	l-0.3-0.4l1.3-0.9c-0.3,0-0.7,0-1,0.1c-1.2,0.3-2.2,1.2-3.6,1c0.3,0.4,0.6,0.7,0.9,1c0.1,0.1,0.2,0.1,0.4,0.1L232.7,83.1l-3.2,1.1
	c0.1-0.6-0.2-1.2-0.8-1.3c0,0-0.1,0-0.1,0l1.1-0.6c-0.3-0.2-0.6-0.3-0.9-0.3c-0.6,0.1-0.8-0.1-0.9-0.6c-1.2,0-1.6,0.9-2.1,1.8
	c-0.2,0.3-0.2,0.6-0.5,0.9s-0.2,0.6-0.3,0.9c-0.1,0.2-0.2,0.5-0.3,0.7c-0.2,0.4-0.4,0.7-0.7,1.2l1.2,1.4c-0.3,0.1-0.6,0.1-0.8,0.2
	c-0.3,0.1-0.5,0.3-0.7,0.4c0.6-0.3,1.8,0.5,1.9-0.8c0.2,0,0.4,0,0.6,0c0.6,0.2,1.3,0,1.8-0.5c1-0.7,2.3-0.8,3.4-0.1
	c0.7,0.3,1.4,0.3,2,0.7c0.2,0.1,0.6,0,1,0c0.2,0,0.4,0,0.6,0c0.6,0,1.1-0.2,1.4-0.7c0.3-0.4,0.2-1-0.2-1.4c-0.2-0.2-0.4-0.4-0.6-0.5
	C234.5,85,233.5,84.1,232.7,83.1z M247.8,83.5c0.1-0.3,0.2-0.6,0.1-0.8c-0.2-0.5-0.5-0.9-0.9-1.3c-0.6-0.4-1.2-0.8-1.9-1.2
	c-0.6,0.3-1,0.5-1.5,0.7c-0.3,0.1-0.6,0.3-0.9,0.6c-0.2,0.2-0.3,0.3-0.6,0.2c-0.2,0-0.4,0-0.6,0.2c-0.2,0.7-0.4,1.3-0.6,2.1l0.7,0.3
	c-0.1,1.9,1.2,3.1,2.4,4.6c-0.8,0.2-0.6,1-0.9,1.5c-0.4,0.8-0.4,1.7,0.2,2.4c1-0.2,1.5,0.9,2.2,1l1.8-0.4c0-0.2,0-0.3,0-0.5
	c-0.1-0.6-0.3-1.1,0.1-1.7c0.1-0.1,0-0.3-0.1-0.4c-0.2-0.4-0.4-0.7-0.7-1.1h-0.5l0.4-1.3c1,0.5,1,0.5,1.5-0.2
	c-0.2-0.2-0.4-0.5-0.6-0.8c-0.4-0.5-0.5-0.6-1-0.1l-0.3,0.3l-0.2-0.1l0.2-1.3c-1-0.2-1.3-1.3-2.1-1.9l1-0.1l-0.3-0.5l1.2-0.7
	L247.8,83.5z M252.5,85.2c0.2,0,0.4-0.1,0.4-0.1c0.3,0.4,0.6,0.2,0.8-0.1c0.4-0.4,0.7-0.9,1-1.4c-0.6-0.3-0.8-0.7-0.7-1.2
	s0.2-0.8,0.4-1.3c-1,0-1.5,0.8-2.1,1.3l-0.3-0.2c-0.6,0.7-0.8,1.6-0.5,2.5c0,0,0.1,0.1,0.1,0.1l0.7-0.1L252.5,85.2z M229.4,136.1
	c-0.3,0-0.5,0.1-0.8,0.1c-0.7,0-0.8,0.1-0.9,0.9c0,0.5,0,1,0,1.5c-0.1,0.4,0,0.9,0.3,1.2c0.4-0.4,0.9-0.7,1.4-0.1l0.6-0.5
	c-0.5-0.8,0.2-1.4,0.2-1.9L229.4,136.1z M292.3,74.9c0.4,0.4,1,0.4,1.4,0c0,0,0,0,0,0c0.3-0.3,0.5-0.5,0.7-0.8
	c0.2-0.3,0.4-0.6,0.8-0.6c0.4-0.2,0.8-0.4,1.1-0.7c0.5-0.4,0.4-1.2,1-1.5c0.1,0,0.1-0.2,0.2-0.3c0,0,0-0.1,0-0.1v-2
	c-0.2,0.4-0.3,0.5-0.4,0.7c-0.5,1.1-1.2,2.1-2.1,2.9c-0.4,0.3-0.7,0.6-1,1C293.7,74.1,293.1,74.6,292.3,74.9z M228.9,61.1
	c-1-1.8-1.6-2.1-2.5-1.3l1.1,2L228.9,61.1z M225.8,142.9c0.2-1,0-2-0.4-2.9c-0.1,0.4-0.2,0.7-0.1,1.1c0.1,0.4,0.1,0.8,0.1,1.1
	c-0.1,0.6,0.1,1.2,0.5,1.6c0.5,0.5,0.8,1.2,1,1.9h0.6c0,0,0-0.1,0-0.1c-0.3-0.4-0.8-0.9-0.8-1.3
	C226.7,143.7,226.2,143.4,225.8,142.9z M229.9,147l-0.2,0.1c0.2,1.5-0.3,3.1,0.6,4.8c0-1.3-0.1-2.3-0.1-3.4c0-0.3,0-0.6,0-0.9
	C230.1,147.4,230,147.2,229.9,147L229.9,147z M230.7,58.1c0.2,0.2,0.5,0.5,0.5,0.6s-0.3,0.4-0.6,0.8l1.4,1.1c0-0.3,0-0.6,0-0.9
	c-0.2-0.5-0.4-1-0.6-1.4L230.7,58.1z M239.3,91.9c0.2,0.5,0.4,1,0.6,1.4s0.4,0.4,0.8,0C240.3,92.9,240.1,92.2,239.3,91.9L239.3,91.9
	z M211.4,62.8l-1.1,1.5c0.8,0,1.2-0.2,1.4-0.7C211.8,63.4,211.6,63.1,211.4,62.8L211.4,62.8z M232.7,64.1c0.4,0.2,0.7,0.6,1.1,0.6
	s0.5-0.4,0.4-0.7C233.7,63.5,233.3,63.9,232.7,64.1L232.7,64.1z M269.7,85.9c-1,0-1,0-1.5,0.4C268.7,86.7,269,86.4,269.7,85.9
	L269.7,85.9z M231.8,131.3c-0.3,0.7-0.4,1.1,0.2,1.5L231.8,131.3z M231,57c-0.2-0.4-0.4-0.6-0.8-0.6C230.3,56.8,230.3,57.2,231,57
	L231,57z M224.2,63.7H224c-0.1,0.6-0.1,0.6,0.4,1L224.2,63.7z M317.9,83.9h0.2c0-0.3,0.3-0.6-0.2-1V83.9z M212.9,120.6l-1.2-0.2
	C212,120.6,212.2,120.7,212.9,120.6L212.9,120.6z M224.9,139c0.5-0.3,0.5-0.5,0.2-0.8c0,0-0.1,0-0.2,0V139z M237.8,91.7
	c-0.5-0.2-0.5-0.2-0.9,0.1L237.8,91.7z M204.8,60.4v0.2l0.4,0.1c0-0.1,0-0.1,0-0.2L204.8,60.4z M225.2,137.2l0.1,0.1l0.3-0.5
	l-0.2-0.1L225.2,137.2z M233.1,123.6c-0.3-0.2-0.4-0.3-0.5-0.3c-0.1,0.1-0.2,0.1-0.3,0.2c0.1,0.1,0.2,0.2,0.3,0.2
	C232.8,123.7,232.9,123.6,233.1,123.6L233.1,123.6z"/>
<path class="st1" d="M81.2,46c1.2,0.1,2-0.2,1.8-1.8c0.4-0.2,0.6,0.1,0.8,0.3c1,0.9,1.9,1.8,3,2.7l0.4-1.6l0.4,1.4
	c1.1-1.1,2-0.5,3.1,0s2.1,0.9,3.2,1.3c0.1,0,0.2,0,0.4,0c1.1-0.3,1.3-0.2,1.8,0.8c-0.4,0.1-0.9,0.2-0.8,0.7c0.7,0.5,2.3,0.4,3.9-0.4
	c0.2,0.5,1.1,0.3,1.1,1.1c0.6,0.1,0.3,0.8,0.8,1c0.4-0.3,0.4-0.3,0-1.6l1.6-1.2l-0.1-0.2l-1.9,0.6l0.5-1.2c0.5-0.1,1-0.2,1.5-0.2
	c0.9-0.1,1,0,1.2,0.9c0,0.1,0.1,0.2,0.1,0.3l0.7-0.2c0,0.1,0.1,0.3,0.2,0.4s0.1,0,0.1,0c0.8-0.3,1.3,0.6,2.1,0.5c0,0,0.1,0,0.1,0
	c0.4-0.1,0.9-0.2,1.3-0.2c0.4,0,0.9,0.1,1.3,0.1c0.1,0,0.2-0.1,0.3-0.2c0-0.3,0-0.6,0.1-0.9c0,0,0.1-0.1,0.2-0.2l1.4,0.7v1.2
	l1.1,0.8l0.1-0.1l-0.4-0.8c0.4-0.9,1.3-1.4,2.3-2l-0.5-0.1h-0.3v-0.9c0.8-0.1,0.8-0.1,0.9-0.7c-0.1,0-0.2,0-0.3,0l-0.4,0.1l-0.6-1
	l-0.8,0.7c-0.1-0.1-0.1-0.2-0.1-0.3c0-0.1,0.1-0.3,0.1-0.3c-0.9-0.5-0.1-1.2-0.3-1.9c0-0.1,0-0.3,0.1-0.3c0.2-0.2,0.5-0.4,0.5-0.4
	c-0.2-0.3,0.1-0.4,0.2-0.7c0.1-0.2,0.2-0.5,0.1-0.8c-0.1-0.5-0.2-0.9-0.3-1.4c-0.3-0.5-0.2-1.1,0.1-1.6c0.5-0.2,0.9-0.3,1.3-0.4
	c0.2,0,0.4,0,0.6,0c0.9,0.2,1.7,0.4,2.6,0.6c-0.3,1.3-0.6,1.6-1.8,1.8l-1.4,0.2c0,0,0,0-0.1,0.1c0.5,0.5-0.2,0.9-0.2,1.4
	c0.8,1.1,2.2,1.3,3.2,2.4l-1,0.2l0.3,0.4l-0.7,0.7c0.3,0.2,0.6,0.4,0.9,0.5c0.5,0.1,0.9,0.5,0.9,1c0.1,0.4,0.3,0.8,0.4,1.2
	c0.3-0.4,0.6-0.7,0.6-1.2c0-0.4,0.3-0.8,0.7-0.9c0,0,0.1,0,0.1,0c0.6,0.6,0.6,0.7,0.3,1.3c-0.1,0.3-0.2,0.5-0.3,0.8
	c-0.1,0.2-0.1,0.4,0,0.6c0.3,0.4,0.6,0.8,0.9,1.1c0.2,0.2,0.8,0,1-0.4c0.3-0.7,0.6-1.3,0.9-2c0.3-0.5,0.3-1.1,0.3-1.6
	c0-0.2-0.1-0.4-0.1-0.7c0.7,0,1.3,0.1,2,0.2c0.3,0.1,0.4,0.5,0.7,0.9h0.6c0,0.1,0.1,0.1,0.1,0.1c-0.2,0.4-0.1,0.9-0.3,1.3
	c-0.3,0.6-0.3,1,0.2,1.4c0.3,0.2,0.6,0.4,0.5,0.7s-0.4,0.5-0.8,0.7c-0.6,0.2-1.1,0.6-1.8,1l-0.9-0.5l0.4,0.8c-0.4,0.4-0.7,0.3-1.1,0
	c-0.3-0.2-0.7-0.3-1-0.3c0.3,0.7,0,1.5-0.7,1.7c0,0,0,0,0,0c-0.4-1.1-1.3-0.6-2.1-0.8v0.5l2.1,0.3c-0.1,0.2-0.2,0.5-0.3,0.7
	c-0.1,0.6-0.6,1-1,0.8c-0.5-0.1-1-0.1-1.3,0.2c0.1,0.5,0,0.9-0.6,1c0.4,0.8,0.2,1.1-0.5,1.2s-1,0.6-1.4,0.9
	c-0.2,0.2-0.4,0.5-0.6,0.7c-0.6,0.6-1.1,1.4-1.3,2.2c-0.1,0.6-0.1,1.2,0.2,1.7h1.4l1,2.4c0.2-0.1,0.4-0.1,0.6-0.1
	c0.3,0,0.6,0,0.9,0.1c0.6,0.2,1.1,0.5,1.6,0.7c0.4,0.2,0.8,0.5,1,0.9c0.3,0.4,0.8,0.6,1.3,0.8c0.8,0.4,1.7,0.7,2.6,0.7
	c0.3,0,0.7,0.2,1,0.3c0.1,0.6,0.1,1.1,0.1,1.7c-0.1,1.2,0.4,2.3,1.3,3c0.3,0.4,0.8,0.5,1.2,0.2c0.1-0.1,0.2-0.2,0.3-0.3
	c0.1-0.4,0.2-0.7,0.2-1.1c0-0.3,0-0.6-0.1-0.9c0-0.4-0.1-0.8-0.3-1.1c-0.3-0.3-0.3-0.7,0-1c0,0,0.1-0.1,0.2-0.1
	c0.9-0.6,1.7-1.3,2.3-2.2c-0.4-0.3-0.2-0.6-0.2-1.1s-0.2-0.7-0.4-1.1c-0.2-0.4-0.4-0.8-0.6-1.1c-0.3-0.3-0.6-0.6-1-0.8l1.3-1.5
	c-0.2-0.6-0.3-1.1-0.4-1.6c0-0.2,0-0.3,0.1-0.5c0.4-0.4,0.5-0.9-0.1-1.2c0.3-0.4,0.7-0.5,1.1-0.4c0.5,0.1,1,0.1,1.5,0.1
	c0.3,0,0.6-0.1,0.9-0.2c0.4-0.3,1-0.2,1.3,0.2c0.4,0.4,0.8,0.9,1.1,1.3l1.1,0.2c-0.1,0.8,0.5,0.3,0.8,0.5c-0.4,0.7-0.5,1.4-0.4,2.2
	c0,0.2,0.2,0.4,0.4,0.5c0.7,0.3,1.4,0.7,2,1.2c1.3-0.7,1.4-2.1,2.2-3.2c0.1,0.6,0.2,1.1,0.4,1.6c0.3,0.4,0.6,0.8,1,1.2l-0.4,0.5
	c0.3,0.1,0.5,0.2,0.6,0.4c0.4,0.6,0.4,1.5,1.4,1.9L143,67c0.2,0.5,0.6,0.9,1,1.2c0.6,0.4,1,1.2,1.9,1.2c0.2,0.4,0.3,0.6,0.8,0.3
	c0.1-0.1,0.4,0.4,0.3,0.8l1.6,1c0,0.1,0,0.3,0,0.4c0,0.9-0.3,1.4-1.2,1.6c-0.7,0.1-1.4,0.5-1.6,1.2c-0.6,0.8-1.5,1.2-2.5,0.9
	c-0.5-0.1-1.1-0.1-1.6-0.1c-0.7,0-1.4,0-2.1,0.1c-0.3,0-0.8,0.1-1,0.3c-0.6,1.1-1.8,1.5-2.5,2.5c0,0.3,0.3,0.4,0.5,0.2
	c0.7-0.5,1.3-1.1,2-1.5c0.5-0.3,1.1-0.5,1.7-0.3c0.7,0.1,0.9,0.5,0.6,1.1c-0.2,0.3-0.4,0.6-0.7,0.8c-0.1,0.1-0.4,0-0.7,0l0.1,0.5
	l1-0.3l-0.2,1l0.3,0.6l0,0c-0.4,0.3-0.1,0.6,0.2,0.7c0.2,0.1,0.4,0.1,0.6,0.1l0,0c0,0.2,0,0.4,0.1,0.5c0.3,0.2,0.5,0.3,0.8,0.4
	l0.7-0.5c0.1,0.4,0.2,0.7,0.1,0.9c-0.3,0.4-0.6,0.7-1,0.9c-0.5,0.3-1.2,0.2-1.4,1c-0.1,0.4-0.8,0.5-1.2,0.3
	c-0.7-0.3-0.8-0.7-0.2-1.2c0.2-0.2,0.4-0.4,0.6-0.5c0.3-0.1,0.5-0.2,0.8-0.2c0.1,0,0.3,0,0.4,0s0.1-0.2,0.3-0.4c-0.2,0-0.4,0-0.6,0
	l-0.6,0.1l0.2-1c-0.6,0.9-1.1,1.6-2.2,1.4c0,0.3-0.1,0.6-0.3,0.8c-0.2,0.2-0.5,0.3-0.8,0.3c-0.2,0-0.5,0.1-0.6,0.3
	c-0.2,0.2-0.6,0.2-1,0.4l-0.7,1.7l0.4,0.5c-0.1,0.1-0.1,0.2-0.2,0.2c-0.9,0.1-1.7,0.4-2.5,0.8c-0.1,0,0,0.2-0.1,0.3l0,0
	c-0.4,0.1-0.5,0.3-0.4,0.7c0.2,0.6-0.3,1-0.7,1.4c-0.1,0.1-0.5,0.1-0.8,0.1c0.3,0.6,0.2,1.3-0.1,1.9l-0.8-0.3
	c-0.2-0.7,0-1.4,0.5-1.9c-0.5-0.1-0.7,0-0.8,0.5c-0.2,0.7-0.5,1.4,0.1,2c0.3,0.4-0.4,0.4-0.2,0.7s0.5,0.4,0.6,0.6s-0.1,0.5-0.2,0.7
	l0.5,0.4l-0.8,0.2c-0.3,1-1,1.8-1.8,2.3c-1.1,0.8-2.2,1.6-2.3,3.2c0,0.6,0.1,1.2,0.3,1.8c0.2,0.8,0.4,1.5,0.7,2.3
	c0.3,0.9,0.1,1.8-0.4,2.6c-0.3-0.4-0.6-0.7-0.8-1.1c-0.2-0.3-0.4-0.6-0.6-1c-0.1-0.4-0.1-0.7-0.1-1.1h-0.3c0.1-0.4,0.1-0.9,0-1.4
	c-0.2-0.4-0.4-0.8-0.7-1.1c0,0-0.2-0.1-0.2,0c-0.8,0.7-1.4,0.1-1.9-0.3c-0.3-0.3-0.8-0.4-1.2-0.3c-0.2,0-0.5,0-0.7,0
	c-0.5-0.2-1.1-0.1-1.4,0.3c0.6,0.1,0.5,0.7,0.7,1.3l-1.2-0.7c-0.6,0.8-0.6,0.8-1.3,0.2c-0.6-0.4-1.3-0.6-2-0.3
	c-0.5,0.2-1,0.2-1.3,0.8c-0.2,0.4-0.8,0.6-1.2,0.9c-0.8,0.4-1.1,1.3-0.7,2.1c0,0,0,0,0,0c0.3,0.6,0.3,1.3-0.1,1.8
	c-0.3,0.4-0.1,1.2-0.2,1.8s0.1,1.1,0.1,1.6c0,0.8,0.3,1.5,0.8,2.2c0.3,0.6,0.7,1.1,1.2,1.7c0.1,0,0.6,0.1,0.7,0.3
	c0.4,0.5,1.1,0.6,1.6,0.2c0,0,0,0,0,0c0.4-0.3,0.9-0.4,1.3-0.2c0.6-0.6,1-1.4,1.2-2.3c0-0.4,0.4-0.8,0.8-0.9
	c0.3-0.1,0.6-0.3,0.9-0.4c0.3-0.2,0.8-0.2,1.1,0.1c0.3,0.3,0.2,0.6,0.1,1s-0.2,0.8-0.3,1.1c-0.2,0.6,0.1,1.3-0.7,1.7
	c0,0,0,0.1,0,0.2c0.1,1-0.1,2-0.6,2.8c0.8,0,1.5,0,2.2-0.2c1.2-0.4,2,0.3,2.7,1c0.1,0.3,0.1,0.6,0,0.9c-0.3,1-0.5,2-0.4,3.1
	c0.1,0.5,0.3,1,0.7,1.5c0.2,0.4,0.5,0.8,0.8,1.1c0.7,0.3,1.5,0.1,2.1-0.4c0.4-0.3,0.9-0.2,1.1,0.1c0.5,0.5,1,1.1,1.5,1.7
	c0.2-0.5,0.4-0.9,0.7-1.4c0.3-0.4,0.5-0.8,0.6-1.3c0-0.2,0.3-0.4,0.5-0.5c0.5-0.3,1.1-0.5,1.6-0.8c0.3-0.2,0.5-0.4,0.8-0.6
	c0.3-0.3,0.5-0.3,0.8,0.1l-0.6,0.8l0.4,0.8c-0.7,0.5-0.6,1.1,0,1.6c0.7-0.3,0.7-0.5,0.3-1.2c-0.3-0.3-0.3-0.7,0-1c0,0,0,0,0,0
	c0.1-0.1,0.2-0.1,0.3-0.1l0.8-0.2l-0.4-0.6l0.1-0.1c0.5,0.3,1,0.5,1.5,0.8c0.1,0,0.2,0.1,0.2,0.2c0.1,0.2,0.1,0.4,0.2,0.5h1.1
	c0.2,0,0.5,0,0.7,0.1c0.6,0.6,1.1,0.4,1.7,0.1s1.1-0.3,1.9-0.5c-0.2,0.5-0.6,0.8,0,1c0.3,0.1,0.7,0.2,1.1,0.3l-0.2,1.1
	c0.8-0.1,1.5,0.2,2,0.7c0.5,0.6,0.5,0.5,0.2,1.2c-0.1,0.1-0.1,0.2,0,0.3l0.5-0.5c0.3,0.1,0.6,0.2,0.8,0.4c0.5,0.5,1.2,0.6,1.8,0.4
	c1,0,2,0.4,2.7,1.1c0.6,0.5,1,1.1,1.3,1.8c0.1,0.4,0.2,0.8,0.3,1.2c0.2,0.3,0.3,0.6,0.6,0.9c0,0.1-0.7,0.6,0.1,0.8l-0.3,1.1
	c-0.3,0.3-0.8-0.6-1,0.1c-0.1,0.5-0.9,0.9-0.3,1.5l1.9-1.8c0.3,0.1,0.6,0.3,0.9,0.5c0.1,0.3,0.2,0.6,0.3,0.9
	c0.4-0.5,1.1-0.6,1.6-0.2c0.1,0.1,0.1,0.1,0.2,0.2c0.1,0.1,0.2,0.1,0.3,0.1c1,0.3,1.6,1.1,1.6,2.1c0.2-0.2,0.4-0.2,0.4-0.3
	c0.1-0.3,0.5-0.4,0.8-0.3c0,0,0,0,0.1,0c0.7,0.3,1.5,0.5,2.2,0.6c0.4,0.1,0.9,0.3,1.2,0.6c0.5,0.3,0.9,0.8,1.3,1.2
	c0.1,0.1,0.3,0.2,0.5,0.3c1.2,0.1,1.6,1,1.9,1.9c0.4,1.2,0.2,2.5-0.5,3.5c-0.1,0.3-0.4,0.5-0.6,0.6c-0.6,0.4-1.1,1-1.3,1.7
	c-0.2,0.4-0.1,1.2-0.9,1c-0.3,0.5-0.5,1.1-0.6,1.6c0,0.6,0,1.1,0.1,1.7c0,0.5-0.1,1-0.1,1.4c0,0.4-0.1,0.7-0.1,1c0,0,0,0.1,0,0.1
	c-0.3,0.7-0.5,1.5-0.8,2.2s-0.7,1.2-1,1.8c-0.2,0.3-0.2,0.6-0.2,0.9c0,0.6-0.4,0.9-0.7,1.2s-0.6,0.2-1,0.2c-0.6,0.1-1.3,0-1.5,0.8
	c0,0.1-0.2,0-0.3,0.1c-1.1,0.4-2,1-2.9,1.8c-0.4,0.2-0.5,0.7-0.4,1.1c0.1,0.6,0.1,1.3,0.2,1.9c0,0.5-0.2,1-0.5,1.4
	c-0.4,0.6-0.8,1.3-1.2,1.9l-0.5-0.3c-0.2,0.4-0.5,0.7-0.7,1c-0.3,0.5-0.8,1-0.7,1.7c0,0.2-0.1,0.4-0.3,0.6c-0.2,0.3-0.4,0.7-0.6,1
	c-0.3,0.5-0.9,0.8-1.5,0.8c-1.1,0-2.1-0.4-2.7-1.2c-0.1,0.4,0,0.9,0.3,1.3c0.3,0.4,0.8,0.6,0.6,1.2c0,0.1,0.1,0.3,0.3,0.4
	c0.6,0.3,0.5,0.7,0.2,1.1c0,0,0,0.1,0,0.1c-0.4,1.5-1.7,1.9-3,2.1l-1.9,0.3c0.5,0.5,0.2,1.1,0.2,1.7c0,0.5-0.2,1-0.7,1.2
	c-0.4,0.2-1,0.1-1.2-0.3c-0.1-0.1-0.2-0.1-0.3-0.1c-0.6,0.6-0.1,1.2,0.1,1.6c0.1,0.2,0.6,0.1,1,0.2c0.1,0.4,0.2,0.6-0.5,0.7
	c-0.3,0-0.7,0.4-0.8,0.7c-0.2,0.7-0.4,1.4-0.5,2.2c-0.9-0.1-1.2,0.7-1.7,1.2c-0.2,0.3-0.2,0.7,0,0.9c0,0,0.1,0.1,0.1,0.1
	c0.4,0.3,0.8,0.6,1.2,0.8l0.2,1c-0.5,0.5-1,1-1.5,1.5c-0.1,0.2-0.2,0.4-0.2,0.7c0,0.7-0.3,0.9-1.1,0.4c0.1,0.4,0.3,0.7-0.1,1
	s-0.3,1,0.1,1.5c0.1,0.1,0.2,0.3,0.3,0.5l-1,0.3c0.2,0.2,0.3,0.4,0.4,0.4c0.5,0,0.6,0.3,0.7,0.7c0.3,0.9,0.9,1.5,1.8,1.8
	c0.3,0.1,0.5,0.2,1,0.3c-0.8,0.4-1.7,0-2.1,1c-0.4-0.6-0.8-0.1-1.2,0c-0.3,0.1-0.5,0.1-0.8,0.1c-0.4,0-0.2-0.4-0.3-0.6
	c-0.1-0.1-0.2-0.2-0.4-0.3c-0.4-0.1-0.8-0.2-1.2-0.4l0.2-0.5c-0.1-0.1-0.3-0.2-0.4-0.2c-0.9-0.2-1-0.4-1-1.2c0,0-0.2-0.1-0.3-0.1
	l0.2-1.2l1-0.6l-1.2,0.3c0,0.3-0.1,0.7-0.1,1c0,0.2,0.1,0.4,0.2,0.5c-0.1,0-0.3,0.1-0.3,0c-0.2-0.3-0.4-0.5-0.6-0.8
	c-0.5-0.9-0.5-0.9,0.5-1.1c0.2-0.1,0.3-0.1,0.5-0.2c-0.5-0.6,0.1-1.6-0.9-1.9l-0.3,0.6H131c-0.1-0.8-0.2-1.7-0.2-2.5
	c0-0.3,0.3-0.6,0.6-1.1l0.5,1.1h0.1c-0.1-0.4-0.1-0.8,0-1.2c0.1-0.4,0.4-0.8,0.1-1.2l-1.1-0.1l0.2-1c0.1,0,0.2-0.1,0.3-0.1
	c0.4,0.1,0.7,0.2,1.2,0.4c0-0.6,0-1,0-1.4c0-0.4,0-0.7,0.1-1.1c0.6-1.2,0.3-2.5,0.6-3.6c0,0-0.1-0.1-0.2-0.2
	c-0.4,0.4-0.5,0.9-0.4,1.4c0,0.3-0.1,0.6-0.2,0.8c0,0.1-0.3,0.1-0.6,0.2c0.4-0.8-0.1-1.5,0.6-2.1c0.1,0,0-0.2,0-0.4
	c-0.1-0.7,0-1.4,0.3-2c0.1-0.3,0.1-0.6,0.1-0.9c0-0.6-0.2-1.2-0.2-1.7c0.1-0.4,0.2-0.9,0.4-1.2c0.3-0.6,0.5-1.3,0.5-1.9
	c0-0.6,0.2-1.1,0.5-1.6c0.5-1.1,0.7-2.3,0.4-3.5c-0.1-0.2,0.1-0.5,0.1-0.8c0.1-0.4,0.2-0.8,0-1.2c-0.1-0.2-0.1-0.4,0-0.6
	c0.2-1,0.4-2.1,0.5-3.1s0.1-2.3,0.1-3.4c0-0.6,0.2-1.2,0.3-1.8c0.3-1.1,0.3-2.3,0.1-3.5c-0.2-0.8-0.7-1.5-1.4-1.9
	c-1-0.4-2-1-2.8-1.8c-0.6-0.5-1-1.3-1.1-2.1c0-0.3-0.1-0.6-0.2-0.8c-0.6-1.1-1-2.3-1.3-3.6c-0.1-0.4-0.2-0.7-0.5-1.1
	c-0.8-1-1.7-2-2.6-3.1c0-0.3-0.1-0.6-0.2-0.9c-0.2-0.5-0.1-1.1,0.3-1.5c0.2-0.2,0.4-0.4,0.6-0.7c-0.3-0.4-0.7-0.6-0.6-1.2
	s-0.1-0.9,0.2-1.4c0.2-0.3,0.3-0.7,0.3-1.1c0.1-0.4,0.2-0.7,0.3-1.2c0.5-0.3,0.8-0.9,0.9-1.4c0-0.2,0.2-0.4,0.4-0.5s0.6-0.5,0.9-0.8
	l-0.2-0.1c0-0.3,0-0.6,0-0.8c0.1-1,0.2-1.9,0.3-2.8c-1-0.7-1-0.7-0.8-1.4l-1-1l-0.9,0.8c0.2,0.3,0.5,0.7-0.2,0.9
	c-0.6-0.4-1.1-1.2-2.1-1c-0.1-0.3-0.8-0.1-0.7-0.8c0-0.1-0.2-0.3-0.3-0.4s-0.5-0.4-0.7-0.6l-0.4,0.4c-0.2-0.3-0.7-0.4-0.4-1.1
	c0.1-0.2-0.1-0.6-0.2-0.9c-0.3-0.6-0.7-1.1-1.1-1.6c-0.1-0.2-0.2-0.4-0.2-0.6c-0.8,0.1-1.7-0.1-2.4-0.4c-1-0.5-1.8-1.2-2.4-2
	c-0.7-0.8-1.8-1-2.7-0.6c-0.8,0.2-1.6,0.1-2.3-0.4c-0.2-0.1-0.5-0.2-0.7-0.3c-0.7-0.2-1.4-0.4-2-0.9c-0.4-0.2-0.9-0.4-1.3-0.6
	c-0.2-0.1-0.3-0.2-0.5-0.4c-0.4-0.4-0.8-0.8-1.2-1.1c-0.7-0.4-1-1.4-0.7-2.1c0.2-0.6,0-1.3-0.4-1.9c-0.8-1.4-1.8-2.8-2.9-3.9
	c-0.3-0.3-0.3-0.3,0-0.9c-1.8-1.7-3.1-3.8-3.9-6.1c-0.2,0-0.4,0.1-0.7,0.1c-0.2-0.1-0.5-0.1-0.7-0.2c0,0.3,0.1,0.6,0.2,0.9
	c0.5,0.9,1.1,1.8,1.6,2.8c0.7,1.4,1.3,2.9,1.9,4.4c0.2,0.5,0.5,1,0.9,1.4c0.3,0.2,0.3,0.6,0.1,0.8c-0.1,0.1-0.1,0.1-0.2,0.2
	c-0.2-0.4-0.4-0.7-0.7-1c-0.7-0.6-1.2-1.4-1.3-2.4c0-0.5-0.4-0.7-0.7-1c-0.6-0.4-1.1-0.8-1.7-1.2c0.2-0.4,0.8-0.3,0.7-0.8
	s0-1.4-0.6-1.8c-1.3-0.7-1.5-2.1-2-3.3c-0.2-0.5-0.5-0.9-0.8-1.3c-0.6-0.4-1.3-0.8-2-1.1c-0.4-0.6-0.8-1.4-1.2-2.1
	c-0.1-0.3-0.1-0.6-0.2-0.9l-0.5-0.4l0.3-0.8l-0.5,0.1c-0.1-0.1-0.1-0.1-0.2-0.1c-0.2-0.4-0.4-0.8-0.5-1.2c-0.3-0.5-0.5-1-0.7-1.5
	c0-0.5,0.1-1,0.2-1.4c0-0.4-0.1-0.8-0.2-1.1c-0.1-0.5-0.1-1-0.1-1.5c0.1-1.5,0.3-2.9,0.3-4.4c-0.1-0.5-0.3-0.9-0.5-1.4l-0.3-0.9
	l1.7,0.2v-0.2c-0.5-0.1-1-0.2-1.5-0.4c-0.4-0.3-0.8-0.7-1.1-1.1c-0.2-0.2-0.8,0-0.8-0.6l-1.1-0.1l-0.4-0.8c1-0.9,0.9-1.9-0.2-2.5
	c-0.7-0.3-0.2-0.8-0.3-1.2l-0.6,0.4c-0.1-0.2-0.3-0.4-0.4-0.6c-0.1-0.7-0.3-1.4-0.7-2c-0.1-0.1,0-0.4,0-0.6h-0.5v1.1l-1.9-2.3
	c0.4-0.1,0.4-0.1,0.9,0.1l0.1-0.4l-1-1.9c-0.2-0.3-0.1-0.7-0.6-0.8c-0.1-0.1-0.1-0.3-0.2-0.4c-0.2-0.1-0.4-0.3-0.7-0.4l-0.9,0.6
	l1.1,0.6l0.1-0.5l0.5,0.2c0.1,0.2,0.1,0.4,0.1,0.6c0.1,0.6,0.1,0.6-0.6,0.8l0.1-0.5h-0.2l0.2,0.4l0.1,0.5c0.4,0.2,0.7-0.8,1-0.1
	s-0.2,0.8-0.6,1.3c-0.1-0.2-0.2-0.5-0.3-0.5c-0.6-0.1-0.8-0.5-1-1s-0.5-0.6-0.7-0.9c-0.4-0.6-0.9-1.2-1.6-1.5
	c-0.4-0.2-0.6-0.6-0.4-1c0,0,0,0,0,0c-0.3,0-0.5,0-0.8-0.1c-0.3-0.2-0.5-0.3-0.7-0.6c-0.4-0.1-0.9-0.3-1.5-0.4s-0.9-0.4-1.4-0.1
	c-0.3,0.1-0.6,0-0.8-0.1c-0.6-0.4-1.4-0.4-1.9-1.1s-1.3-0.5-2.1-0.4l0.4,0.5c0.3,0.4,0.1,1-0.3,0.9c-0.9-0.1-1.3,0.5-1.8,0.9
	c-0.3,0.3-0.8,0.4-1.2,0.5c-0.2-0.4,0.5-0.4,0.1-0.9s0.2-1.6,0.8-1.9c0.3-0.1,0.6-0.1,0.9-0.1c0-0.6-0.6-0.4-1-0.6
	c-0.5,0.6-1.1,1.1-1.7,1.7s-1.4,0.7-1.5,1.7l0.6,0.3c-0.4,0.6-0.9,1.2-1.5,1.6c-1.1,0.9-2.1,2-3.2,2.9c-0.6,0.4-1.3,0.7-2,0.9
	c-0.1,0-0.2-0.2-0.4-0.3c-0.3,0.4-0.4,1.1-1.3,1c0.7-0.7,1-1.8,2.3-1.3c0.1-0.5,0.4-0.9,0.9-1.1c0.6-0.3,1.1-0.7,1.3-1.4
	c0.3-0.7,0.6-1.4,0.9-2.1l-1.7,0.3c-0.4-0.2-0.8-0.6-1.2-0.6s-0.8,0.4-1.3,0.7c-0.3-0.7-0.1-1.6-0.8-2.1c-0.3,0.1-0.6,0.4-0.9,0.4
	s-0.5-0.3-0.7-0.6s-0.4-0.6-0.8-1l1.1,0.1l0-0.2c-0.7-0.1-1.5-0.1-2-0.9c0.4-0.4,0.7-0.8,1-1.2c0.1-0.1,0.5-0.2,0.2-0.6
	s0.5-0.8,0.9-0.6c0.4,0.3,0.9,0.3,1.2-0.1c0.2-0.1,0.3-0.2,0.5-0.2c0.8-0.2,0.8-0.2,0.7-1.1c0-0.2,0-0.3-0.1-0.5
	c0-0.1,0.1-0.2,0.1-0.3l-0.2-0.1c-0.6-0.3-1.1,0.4-1.8,0.2c-0.5-0.2-1.2,0.1-1.8,0.1c-0.5,0.1-1.1-0.1-1.3-0.6
	c-0.1-0.3-0.2-0.5-0.2-0.8L47.4,53c0.2-0.5,0.7-0.8,1.2-0.8c0.3,0,0.4-0.1,0.6-0.3c0.4-0.3,0.9-0.5,1.3-0.7l0.2,0.1
	c0.3,0.3,0,0.9,0.5,1c0.5,0.1,1,0.1,1.6,0.1c0.2,0,0.4-0.1,0.6-0.1l-0.6-0.4l1-0.1v-0.1c-0.3-0.1-0.6-0.2-0.9-0.4
	c-0.6-0.5-0.6-0.6-1.3-0.5c-0.1,0-0.2,0-0.3,0c-0.4-1-1.6-1.1-2.3-1.9L49,48l2.5-0.3c0.2-0.8,0.6-1.6,1.1-2.2
	c0.2-0.2,0.4-0.3,0.6-0.4c0.5-0.2,1.1-0.4,1.7-0.6c0.8,0,1.5-0.3,2.1-0.7c0.2-0.1,0.4-0.1,0.7,0c0.3,0.1,0.5,0.5,0.7,0.5
	s0.6-0.2,0.9,0.1c0.1,0,0.2,0,0.3,0c0.9-0.3,1.7,0.3,2.5,0.4c0.2,0,0.5,0.2,0.7,0.2c1.4-0.5,2.7,0.4,4.1,0.2c0.4,0,0.8,0.1,1.1,0.2
	c0.8,0.3,1.5-0.1,2.2,0c0.2,0,0.4,0.1,0.6,0.1c0.6,0.4,1.4,0.6,2.1,0.5c0.2,0,0.3,0,0.5,0.1c0.9,0.5,1.8,1,2.7,1.4l0.7,0.3
	c-0.1-0.6-0.5-0.3-0.7-0.3c0.2-0.2,0.4-0.5,0.5-0.5c0.5,0,1-0.4,1.1-0.9c0.1,0.1,0.3,0.2,0.5,0.3c0.2,0,0.6,0.1,0.7-0.1
	c0.4-0.5,1-0.8,1.7-0.7l0.4-0.7l1,0.2l0.1,0.2L81.2,46c-0.3,0-0.4,0.2-0.6,0.2c-1.2,0-1.4,0.9-1.8,1.8c0.2,0,0.2,0,0.3,0
	c0.1,0,0.1-0.1,0.2-0.1c0.3-0.6,0.9-1,1.6-1C81.4,46.8,81.4,46.4,81.2,46z M123,80.9c-0.1-0.3-0.3-0.7-0.4-1s-0.2-0.9-0.4-0.9
	c-0.8-0.1-1-0.8-1.3-1.3c-0.6-0.3-1.2-0.2-1.7,0.2c-0.8,0.7-1.7,1.3-2.6,1.9c-0.1,0.1-0.2,0.3-0.3,0.4l0.2,0.1c0.1,0,0.2,0,0.3,0
	c0.8,0.4,1.4,0,2.1-0.5c0.2-0.1,0.5-0.3,0.7-0.3l0.1,0.2l-0.5,0.5c0.3,0.1,0.6,0.1,0.7,0.3c0.3,0.5,0.7,0.5,1.2,0.3s0.7-0.2,1.1-0.3
	C122.4,81,122.7,81.2,123,80.9l0.1,0.6c-0.2,0-0.4,0.1-0.6,0.1c-0.7-0.3-1.2,0.1-1.8,0.3c-0.3,0.1-0.4,0.6-0.6,0.9
	c0.6,0.4,0.1,0.8-0.1,1.2c-0.3,0.9-0.3,1.8,0,2.7c0.1,0.4,0.5,0.4,0.7,0.1c0.2-0.6,0.7-1.1,0.4-1.9c-0.1-0.3,0-0.7,0.1-1
	c0.1-0.9,0.9-1.4,1.5-2c1.1,0.4,1.4,1.1,0.9,2.5l0.7-0.2l0.4,1c0.5,0,0.6-0.3,0.5-0.7c-0.1-0.5,0.2-1.1,0.7-1.3l0.9,0.4l0.4-0.6
	c0-0.2-0.1-0.5-0.3-0.7c-0.3-0.3-0.6-0.7-1-0.8C125,81.5,124,81.3,123,80.9z M87.4,51.7c0.7,0.3,1.7-0.2,2.2,0.9l-1-0.1
	c0.4,0.7-0.5,1-0.3,1.8l1,0.3c0.7-1.2,0.8-1.2,1.5-0.9l-0.5,0.4l0.1,0.1l1-0.3l-0.1-0.7l1.4,0.2l0.3-1.2l-2.3-0.5l0.8-0.5
	C90.2,51,88.8,51.2,87.4,51.7z M96.8,59.1c0.4,0.3,1,0.1,1.2-0.3c0,0,0-0.1,0.1-0.1c0.2-0.3,0.5-0.5,0.7-0.6c0.5-0.4,1-0.8,1.4-1.2
	l-0.1-0.2c-0.2,0-0.5-0.1-0.7,0c-0.4,0.2-0.8,0.5-1.1,0.8c-0.6,0.7-1.3,0.3-2,0.3c-0.1,0-0.3-0.2-0.3-0.4c-0.1-0.6-0.6-0.7-1.2-1
	l0.9,1.7c-0.4,0.2-0.7,0.5-1.1,0.7c-0.4,0.2-0.8,0.3-1.2,0.4l1.3,0.8C95.3,59.8,96.3,60.2,96.8,59.1z M110.4,70.1
	c-0.3,0.1-0.5,0.3-0.7,0.5c-0.3,0.5-0.2,1.2,0.3,1.6c0,0,0,0,0.1,0c0.5,0.4,1,0.9,1.3,1.5c0.1,0.2,0.2,0.5,0.2,0.7
	c0.1,0.3,0.1,0.5,0.1,0.8c0.8-0.3,0.3-0.9,0.4-1.3C111.4,72.8,110.8,71.5,110.4,70.1L110.4,70.1z M123.8,86.9
	c0.7,0.8,0.8,0.8,1.6,0.2c0.3-0.1,0.5-0.3,0.8-0.4c0.6-0.3,1.2-0.4,1.4-1.4c-0.4,0.1-0.8,0.2-1.2,0.3
	C125.6,86.1,124.7,86.5,123.8,86.9z M129.1,84.1l0.4,0.5c-1.8-0.1-1.8-0.1-2.2,0.6c1,0.2,2,0,2.9-0.3l0.4-1L129.1,84.1z M84,75v0.2
	c0.3,0.1,0.7,0.1,1.1,0.1s0.6,0.1,0.7,0.3c0.6,1,1.9,1.1,2.5,2.1c0.1-0.1,0.2-0.3,0.1-0.5c-0.1-0.2-0.3-0.4-0.5-0.6
	c-0.2-0.2-0.2-0.5-0.6-0.3c0,0-0.2-0.4-0.3-0.5c-0.3-0.2-0.7-0.4-1-0.6C85.4,75.8,84.7,74.7,84,75z M101.8,62.2l-1.3-0.1l-1.7,1.8
	c0.3,0.3,0.5,0.3,0.7,0c0.5-0.7,1.2-1.2,2-1.4C101.5,62.5,101.6,62.3,101.8,62.2L101.8,62.2z M106.8,66.7l0.6-2
	C106.3,64.9,106,65.6,106.8,66.7L106.8,66.7z M134.9,199.9c-0.2,0.4-0.2,0.4,0.3,1.8c0.6-0.2-0.2-0.6,0.1-0.9
	S134.8,200.3,134.9,199.9z M108.3,71.7l0.5,1.6c0.4-0.5,0.4-1.3-0.1-1.7c0,0-0.1,0-0.1-0.1L108.3,71.7z M90.6,56.6
	c0.7,0,1.3,0.5,1.9-0.1C91.8,56.5,91.2,55.8,90.6,56.6L90.6,56.6z M109.3,73.6l1.1,2C110.5,74.8,110,73.9,109.3,73.6L109.3,73.6z
	 M119.9,76.6l-0.5-0.9C119,76.4,119,76.4,119.9,76.6L119.9,76.6z M144.8,72l1.3-0.8v-0.1l-1.4,0.5L144.8,72z M122.6,123.4l-0.9-0.9
	l-0.2,0.1C121.7,123,121.8,123.4,122.6,123.4L122.6,123.4z M132.9,75l0.2,0.2c0.4-0.1,0.7-0.5,0.7-0.9L132.9,75z M97.8,87.9
	c0.2-0.7,0-0.9-0.4-0.8c0,0-0.1,0.1-0.1,0.1L97.8,87.9z M133.6,201.2l0.6-0.3l-0.5-0.3L133.6,201.2z M132.2,195.1L132,195l-0.2,0.6
	h0.1L132.2,195.1z M136.8,72.2l-0.2-0.1l-0.2,0.5l0.2,0.1L136.8,72.2z M135.5,153.4c0.1,0.1,0.3,0.2,0.4,0.3c0,0,0.1-0.1,0.1-0.1
	c0-0.1-0.1-0.2-0.2-0.3C135.9,153.2,135.7,153.3,135.5,153.4L135.5,153.4z"/>
<path class="st1" d="M176.6,43.4c0,0.6,0,0.6-0.5,0.8l0.6,0.6l-0.9,0.3c0.1,0.1,0.1,0.3,0.2,0.3c0.3,0,0.6,0,0.9,0
	c0.3-0.1,0.7-0.1,1-0.1c0.6,0.1,1.2,0.3,1.8,0.4c-0.2,0.2-0.4,0.4-0.6,0.7c-0.3,0.4-0.7,0.7-1.3,0.8c-0.7,0.1-1.4,0.4-2,0.9
	c-0.8,0.5-1.7,0.8-2.6,0.9c-0.4,0.1-0.8,0.2-1.2,0.3c-0.6,0.3-1.3,0.3-1.9-0.1c0.1,0.1,0.1,0.3,0.2,0.4c0,0.1,0,0.2,0,0.4l-1,0.9
	c-0.1,0.1-0.2,0.3-0.4,0.3c-0.7,0.2-1.2,0.7-1.6,1.3c-0.2,0.2-0.2,0.6-0.7,0.4c-0.1,0-0.4,0.3-0.7,0.6l-0.4-0.4
	c-0.5,0.2-1,0.3-1.5,0.3c-0.7-0.1-0.5,1.1-1.3,0.7c0.2,0.5,0.5,0.9,0.4,1c-0.4,0.5-0.1,1.2-0.6,1.6s-0.1,1-0.8,0.9
	c0.1,0.4-0.3,0.7-0.4,1.1c-0.1,0.4-0.2,0.9-0.4,1.3c-0.2,0.5-0.3,1-0.3,1.5c0.1,0.6-0.2,0.8-0.7,0.5c-0.4-0.2-1-0.2-0.8-0.9
	c-0.9,0.1-1.1-0.1-1.3-0.8l-1.5,0.7l-1.3-2.4c-0.2-0.1-0.6,0.5-0.7-0.2c-0.5,0-0.3-0.7-0.8-0.7c-0.3,0-0.1-0.7-0.6-0.9
	c-0.1,0-0.1-0.5-0.1-0.8c0.5,0,0.9-0.4,0.9-0.9l-1.1,0.6c-0.1-1-0.7-1.9-1.6-2.4l0.4-1c-0.1-0.3-0.5-0.7-0.4-0.8
	c0.2-0.3-0.1-0.6,0-0.8s0.6-0.5,0.6-0.8c0.1-0.3,0.4-0.5,0.7-0.6c0.3-0.1,0.7-0.1,1-0.1l-0.1-1.1l0.6,0.1c0.1-0.4-0.3-0.6-0.4-0.8
	s0-0.6,0.1-1.1c-0.4,0-0.9,0-1.3-0.1c-0.4-0.2-0.8-0.4-1.1-0.6l-0.1,0.2l1.4,1.3c-1.1,1-1.7,1.2-2.6,0.7l0.3-0.1
	c0.1,0,0.2-0.1,0.2-0.2l-1-0.2l0.4-1.5l0.9-0.2l-0.8-0.6c0.6-0.6,0.7-0.6,3.4,0.5c-0.1-0.3-0.1-0.5-0.1-0.8c0.1-0.2,0.2-0.5,0.4-0.7
	l-3-1c-0.2,0.2-0.4,0.5-0.6,0.6c-0.3,0-0.7,0-1-0.2c0.2-0.4,0.3-0.9,0.3-1.4c0-0.3,0.1-0.4,0.4-0.6c0.2-0.2,0.3-0.4,0.2-0.7
	c-0.3-0.6-0.6-1.1-1-1.7c-0.1-0.2-0.4-0.3-0.6-0.4l0.3-0.6c-0.7-0.6-1.3-1.2-1.9-1.8c-0.1,0-0.1-0.1-0.1-0.1
	c-1.2-0.3-2.1-1.2-3.3-1.4c-0.2,0-0.5,0.2-0.7,0.3l-0.3-0.3l-2.1,0.6c-0.3-0.3-0.8-0.7-1.3-0.2c-0.1,0.1-0.4-0.1-0.6-0.2l-0.2,0.7
	c-0.6,0.1-1.3,0-1.8-0.4c-0.2-0.5-0.6-0.9-1.1-1c-0.1,0-0.2-0.3-0.4-0.6c0.4-0.1,0.9-0.1,1.2,0.1c1.2-0.9,2.6-0.8,4.1-0.8
	c-0.2-0.4-0.7-0.5-1.1-0.4c-0.3,0.1-0.7,0.1-1,0.1c-0.3-0.1-0.7-0.2-1-0.3c-0.3,0.5-0.9,0.6-1.4,0.3c-0.6-0.3-1.2-0.8-1.5-1.3
	c0.2-0.4,0.5-0.6,0.9-0.6c1.1-0.1,2.2-0.4,3.3-0.6c0.5-0.1,0.9-0.1,1.4-0.1c0.9,0.1,1.7-0.5,1.8-1.4c0-0.2,0-0.4,0-0.6h-2.8
	c0-0.8,0.1-0.9,0.7-1.2c0.9-0.3,1.7-0.6,2.6-0.9c0.5-0.1,1-0.1,1.6,0l0.4-1.2c0.6-0.3,0.9,0.1,1.1,0.4c0.1-0.2,0.2-0.4,0.3-0.6
	c0.2-0.2,0.5-0.3,0.7-0.3c0.6-0.1,1.1-0.2,1.6-0.3s1,0.3,1.5,0c0.1-0.1,0.3,0,0.4-0.1c0.8-0.4,1.1-0.3,1.2,0.5
	c0,0.3,0.1,0.5,0.1,0.8c0.5-0.3,1.1-0.5,1.6-0.3c-0.4-0.4-1.1-0.4-1.3-1.3l2.4,1.1l-0.6,0.3l1.1,0.5l0.2-2.3
	c0.9-0.1,1.7,0.3,2.1,1.1c0.4,0.8,1,1.3,1.9,1.5c0.3-0.2,0.6-0.8,1.2-0.3c-1-0.6-1.9-1.4-2.6-2.3c0.7-0.1,1.3-0.1,1.9-0.1
	c0.6,0,1.2-0.5,1.2-1.2c0,0,0-0.1,0-0.1l1.8-0.3c0.1,0.2,0.2,0.4,0.3,0.6c0.2,0.3,0.5,0.4,0.8,0.1c0.4-0.4,0.9-0.7,1.4-0.9
	c0.3-0.2,0.7-0.3,1.1-0.4c0.6-0.2,1.3-0.3,1.9-0.2c0.6,0.1,1.3-0.1,2,0c0.8,0.1,1.7-0.2,2.5,0.2c0.3,0.1,0.7,0.1,1.1,0
	c0.3-0.1,0.7-0.1,1-0.1c0.8,0.1,1.6,0.2,2.6,0.4l-0.8,0.7l0.1,0.1c0.3-0.1,0.5-0.1,0.8-0.2c1-0.4,1-0.4,1.5,0.5l3.5,0.8
	c-0.7,0.5-1.1,0.9-1.9,0.9c-0.4,0-0.7,0.1-1.1,0.1c-0.2,0-0.4,0-0.6,0c-1.7-0.3-3.4,0-5.1-0.2c-0.5,0-1,0.2-1.3,0.6l4.5-0.2l0.2,0.7
	c0.1,0,0.1,0.1,0.2,0.1c0.4,0,0.8-0.1,1.2-0.1c0.1,0,0.3,0,0.4-0.1c0.4-1,1.2-0.4,1.9-0.5c-0.1,1.4-1.2,1.3-2,1.8
	c0.9,0.1,1.7,0.3,2.4-0.4c0.3-0.2,0.6-0.4,1-0.5c0.2-0.1,0.3-0.1,0.5,0c0.7,0.2,1.5,0,2.1-0.3c0.5-0.2,1-0.2,1.5-0.1
	c0.8,0,1.6,0.1,2.4,0.2c0.4,0,0.7,0.1,0.8,0.5c-0.8,0.4-1.6,0.7-2.4,1.1c-0.2,0.1-0.4,0.2-0.5,0.4c-0.3,0.8-1.2,1.2-2,1
	c-0.7-0.1-1.4-0.1-2.2-0.2l0.3,0.8c0.8-0.4,1.6-0.7,2.4-0.1c-0.2,0.6-0.7,1-1.3,1l-1.2,2.3c-0.5,0.1-1-0.5-1.4,0
	c0.6,0.6,1.6,0.1,2.1,0.9h-0.8l-0.1,0.6l1.4-0.2l0.6,1.3l-2.3-0.4l-0.8,1.3c0.1,0,0.3,0,0.4,0c0.7-0.2,0.7-0.2,0.9,0.4
	c0.3,0.4,0.3,0.9,0.1,1.4l-1.1-0.2l0.5,1.5c0.3-0.1,0.6-0.1,0.9-0.1c0.1,0,0.3,0.2,0.4,0.3c-0.1,0.1-0.3,0.2-0.4,0.3
	c-0.1,0-0.2,0-0.3-0.1c-0.3-0.3-0.7-0.3-1,0c0,0-0.1,0.1-0.1,0.1c-0.1,0.2-0.6,0-1,0c0.1,0.5,0.4,0.3,0.8,0.3
	c0.3,0.1,0.6,0.2,0.9,0.4c-0.7,0.9-1.9,1.2-3,0.7l1.7,1.1l0.1,1.6l-1-0.3c0.7,0.9,1.7,1.5,1.2,2.7c-1.1,0.2-2.1-0.4-2.6-1.4
	C177.3,43.6,176.9,43.5,176.6,43.4l-2.5-0.6c0.1,0.2,0.2,0.5,0.3,0.5C175.1,43.4,175.9,43.4,176.6,43.4z M178.1,41.4l-1-0.3
	l-0.2,0.3l0.6,0.8h0.6L178.1,41.4z M173.9,22.1c-0.9-0.2-1.9-0.1-2.8,0.3L173.9,22.1z M182.6,26.9v0.2l1.8-0.2
	C183.9,26.5,183.2,26.5,182.6,26.9L182.6,26.9z M175.3,40.9l-0.2,0.2l0.7,0.6l0.1-0.1L175.3,40.9z M174.3,44.9L174.3,44.9L175,45V45
	L174.3,44.9z M176.9,40.2c0.4,0,0.7,0.1,0.7-0.5L176.9,40.2z"/>
<path class="st1" d="M301.1,166.3c-0.4-0.4,0.4-0.3,0.3-0.6c-0.2-0.6,0-1.4-0.8-1.9c0.9-0.6,0.2-1.5,0.6-2.4
	c0.4,0.4,0.5,0.2,0.8-0.1c0.6-0.5,0.9-1.2,1.7-1.4c0.2-0.1,0.5-0.1,0.7-0.2s0.7-0.1,0.9-0.3c0.5-0.5,1.1-0.8,1.7-0.8
	c0.9-0.3,1.5-1.1,1.7-2c0.1-0.5-0.1-1.2,0.7-1.4l0.6,0.8v-1.3l0.7,0.1c0.3-0.8,0.9-1.6,1.5-2.1c0.7-0.6,0.9-0.6,1.5,0.2
	c0.1,0.2,0.2,0.3,0.3,0.5l1.3,0.3l-0.3-0.8l0.8-0.9c0-0.1,0.1-0.2,0.1-0.2c-0.3-0.4,0.1-0.7,0.3-0.8c0.3-0.1,0.7-0.2,1-0.2
	c0.3,0,0.6,0,0.8,0.1c0.3-0.8-0.6-0.6-0.7-1.2c0.5,0.2,1.1,0.4,1.6,0.6c0.8,0.2,1.6,0.2,2.4,0.3c0.2,0,0.3,0.1,0.5,0.2
	c0,0.1-0.1,0.3-0.1,0.4c0,0.2-0.1,0.3-0.2,0.5c-0.1,0.2-0.3,0.3-0.5,0.4c-0.1,0.5-0.2,1-0.4,1.7c0.5,0.3,0.9,0.6,1.4,0.9
	c0.7,0.5,1.5,1.1,2.1,1.7c0.4,0.4,0.4,0.5,1.2,0.3c0.2-0.6,0.5-1.3,0.6-1.9c0.1-0.5,0.1-1,0.1-1.4c0.1-0.9,0.1-1.9,0.2-2.8
	c0.1-0.4,0.2-0.9,0.3-1.3c0.9,1.3,1.7,2.4,1.3,4.1l0.8-0.3c0.6,0.4,0.9,1.1,0.8,1.8c0,0.2,0,0.4,0.1,0.6c0.5,0.7,0.7,1.6,0.7,2.5
	c0,0.3,0.2,0.6,0.5,0.7c0.4,0.1,0.7,0.3,1,0.5c0.3,0.3,0.8,0.4,0.7,1c0,0.1,0,0.2,0.1,0.3c0.5,0.4,0.7,1,0.5,1.6l0.6,0.3
	c0.4,0.1,0.6,0.5,0.6,0.8c0,0.4,0.2,0.8,0.5,1c0.5,0.5,0.9,1.1,1.2,1.6c0.1,0.3,0.2,0.7,0.1,1c-0.1,0.8,0,1.5,0.4,2.2
	c0.1,0.2,0.1,0.5,0.1,0.8c-0.1,0.8-0.2,1.5-0.3,2.3c0,1-0.5,1.9-1.2,2.6c-0.3,0.3-0.5,0.7-0.6,1.1c-0.2,0.6-0.4,1.2-0.6,1.9
	s-0.4,1.2-0.6,1.8c0,0.1,0.1,0.3,0.1,0.4c0.1,0.5-0.1,0.8-0.7,0.9h-1l-1.4,1.9c-0.5-0.7-1.4-0.9-1.2-2l-1.5,1.6
	c-0.3-0.2-0.6-0.5-0.9-0.7s-0.3-0.3-0.5-0.3c-0.8,0.1-1.2-0.4-1.6-0.9c-0.2-0.2-0.3-0.4-0.3-0.7c-0.1-0.6-0.2-1.3-0.4-1.9l-0.7,0.1
	c-0.2-0.5,0.1-1.2-0.5-1.7c-0.3,0.4-0.2,1.1-0.9,1l0.8-2.3l-0.1-0.1l-1.9,1.6c-0.2-0.2-0.4-0.5-0.5-0.8c-0.1-0.4-0.1-0.8-0.6-1
	c0,0,0-0.2-0.1-0.3c-0.1-0.2-0.2-0.5-0.4-0.7c-0.1-0.1-0.2-0.1-0.3-0.1c-0.9,0.3-1.3-0.8-2.2-0.6c-1.4,0.4-2.8,0.5-4.1,0.9
	c-0.7,0.3-1.4,0.7-1.9,1.3c-0.3,0.3-0.5,0.6-1.1,0.5c-0.5-0.1-0.9-0.1-1.4,0c-0.6,0.1-1.3-0.1-1.7,0.6c-0.8-0.1-1.1,0.8-2,0.6
	s-1.3-0.9-2.2-1.5l0.8-0.1c0.3-1.1,0.2-2.3-0.1-3.4c-0.1-0.4-0.1-0.9-0.2-1.4c-0.1-0.3-0.2-0.6-0.3-0.9l-1.1-2.5L301.1,166.3z"/>
<path class="st1" d="M130.1,30l2.3,0.2c-0.4,0.7-1.1,0.8-1.5,1.3c-0.5,0.7-1.2,0.4-1.9,0.5l-0.2,0.7l-1.3,0.2l1.3,0.9
	c-0.3,0.3-0.5,0.7-1.1,0.7c-0.2,0-0.5,0.1-0.7,0.3c-0.2,0.1-0.4,0.3-0.7,0.4l-0.2-1c-0.4,0.1-0.8,0.1-1.2,0.2s-1.1,0.3-1.6-0.1
	c-0.2,0-0.4,0-0.5,0.2c-0.3,0.5-0.7,0.5-1.2,0.4s-1-0.2-1.5-0.3c-0.2,0.1-0.6,0.4-0.6,0.3c-0.4-0.4-1.2,0.1-1.3-0.8
	c0.5-0.9,1.5-0.6,2.3-1.1l-0.8-0.8c0.9-0.5,2-0.4,2.7,0.4c0.4,0.4,0.9,0.1,1.3,0.3c0.1,0,0.3-0.2,0.6-0.4c-0.4,0-0.9-0.2-1.3-0.3
	c-0.3-0.2-0.3-0.6-0.1-0.9c0-0.1,0.1-0.1,0.1-0.1c-0.6,0.2-1,0.3-1.4,0.4s-0.9,0.1-1.4,0.2c-0.2-0.7-0.1-0.8,0.5-1
	c0.2-0.1,0.4-0.2,0.5-0.2c0,0,0-0.1,0.1-0.2c-0.6-0.4-1.1,0.2-1.6,0.4s-0.8,0.6-1.3,0.9c-0.1,0-0.1,0.1-0.2,0.1
	c-0.7-0.3-1.4,0.4-2.2,0.1c-0.2-0.6-0.4-1.2-0.6-1.8c0.4,0.3,0.8,0.1,1.1-0.2l-1.1,0.3l-1,0.1l-0.1-0.2l0.4-0.3
	c-0.8-0.2-1.4-0.9-1.3-1.8c0.1-0.9,0.9-0.6,1.6-0.8c-0.7-0.7-1.8,0-2.4-0.8c0.5-0.3,1,0,1.4,0c0-0.5,0-0.5-1.2-0.8c0.5,0,1,0,1.5,0
	c0.5,0,1,0.2,1.4,0.3c0.5,0.1,0.8,0.4,1,0.8c0.4,0.8,0.5,0.9,1.4,0.9c0.7-0.1,1.5-0.1,2.2,0.1c0.6,0.2,0.6,0.1,0.7,0.9
	c0.6-0.1,0.6-0.6,0.7-1.1c0.8,0,1.6-0.1,2.3-0.1c0.5,0.1,0.9,0.4,1,0.8c0.3,0.7,0.3,0.7,1.3,0.6c-0.9-0.3-0.9-0.3-1-1.3l3.4-0.3
	l-0.7-0.4l1.5-0.4l-0.2-0.3c-1.8,0.2-3.7,0.5-5.5,0.7c-0.4,0-0.8-0.1-1.2,0.3c-0.3,0.2-0.7,0.2-1,0c-0.6-0.2-1.3-0.3-2-0.2
	c-0.7,0-1.4,0-2.1,0v-0.4h-0.4l-0.1-0.2l0.9-0.4c-0.6,0-1,0-1.2-0.6c0.4-0.4,1-0.2,1.6,0c0.2-0.2,0.4-0.4,0.7-0.6
	c0.2-0.1,0.5-0.2,0.7-0.3c1,0.7,2,0.3,2.9,0.3c-0.7-0.3-1.6,0.3-2.4-0.6l1.5-0.2v-0.8c1,0.6,2.3,0.3,3.1,1.4l0.5-1.1
	c0.3,0.1,0.7,0.4,0.9,0.3c0.5-0.3,1.1,0.2,1.6-0.3c0.1-0.1,0.3-0.1,0.4-0.1s0.6,0,0.8-0.2c0.4-0.4,1-0.5,1.6-0.4
	c0.8,0.1,1.6-0.2,2.2,0.3c0.4-0.2,0.7-0.3,1.1-0.4c0.1,0,0.4,0,0.5-0.1c0.5-0.7,1.2-0.4,1.8-0.3s1,0,1.5,0s0.8,0.1,1.2,0.1l-0.3,0.7
	c0.1,0,0.3,0,0.3-0.1c0.4-0.5,1.1-0.7,1.7-0.4c1.2,0.4,2.3,0.8,3.7,1.2c-1.4,0.8-2.9,1.5-4.4,2l1.8-0.4c-0.5,0.7-1.2,1.1-2.1,1.1
	c-0.8,0.1-1.5,0.3-2.2,0.8c-0.4,0.3-1,0.2-1.4,0.6c-0.4,0.3-0.9,0.5-1.3,0.7c-0.2,0.1-0.5,0.2-0.6,0.3c-0.3,0.5-0.8,0.4-1.2,0.4
	s-0.9,0-1.3,0c-0.1,0-0.2,0.1-0.2,0.1c0.4,0.4,1.2,0,1.1,0.9c-0.2,0-0.4,0-0.5-0.1c-0.7-0.6-1.3-0.2-1.9,0.2
	c-0.5-0.2-0.5-0.2-0.9,0.5L130.1,30z M124.9,30.2c-0.7-0.3-1.2,0-1.7-0.4l0.5-0.4c-0.7,0-0.7,0-1.7,0.8H124.9z M131,29
	c-0.2-0.6-0.5-0.1-0.7-0.1c0,0,0,0.1-0.1,0.1H131z M138.1,23v-0.1l-0.8,0.2v0.2L138.1,23z"/>
<path class="st1" d="M137.4,44.7l-0.4,0.5l0.4,0.4l0.3-0.5c0.8,0.5,0.8,0.6-0.2,1.3l1,0.4c0,0,0.1,0.1,0.1,0.2l-0.8,0.1
	c0.1,0.5,0.1,0.5-0.3,1l2.1,1.5l0.9-0.4v0.5c0.8-0.2,0.8,0.3,0.9,0.8c0.4,0,0.9-0.2,1.1,0c0.5,0.4,0.7,0,1.1-0.2l0.6,0.8l-0.4,0.8
	l-0.5-0.3l-0.7,1.5l-0.4,0.2l0.1,0.8c-0.1,0-0.2,0.1-0.3,0.1c-0.5-0.1-0.9-0.3-1.2-0.7c-0.1-0.2-0.3-0.3-0.5-0.4
	c-0.7-0.3-1.3-0.8-1.6-1.5c-0.2,0.3-0.4,0.6-0.4,0.8c0.1,0.5-0.4,0.1-0.5,0.4c0.9,0.5,1.1,1.8,2.4,1.8c0.3,0,0.5,0.6,0.3,0.9
	c-0.4,0.4-0.3,0.9,0.1,1.4c-0.6-0.4-1-0.8-1.8-0.7c-0.7,0-1.5-0.1-2.1-0.4c0.9,1.2,2.2,1.5,3.2,2.3l-0.1,0.6
	c-1.7-0.8-3.5-0.2-5.4-0.6l0.6-0.6c-0.9,0-0.9,0-1.5-1c-0.2-0.4-0.6-0.7-1-0.8c-0.1,0-0.2-0.1-0.3-0.1c-0.4,0.5-1.1,0.2-1.6,0.6
	c-0.3,0.3-0.7,0.4-1.1,0.4c-0.7-0.2-0.8-0.3-0.6-1.1c0.1-0.3,0.1-0.6,0.2-0.9l4.3-0.6l-1.1-1.5l0.8-0.9c0.2-0.3,0.5-0.4,0.4-0.9
	c-0.1-0.1,0.2-0.4,0.4-0.7c-0.1-0.3-0.2-0.6-0.3-0.8c-0.1-0.3-0.2-0.7-0.5-0.8c-0.5-0.3-0.3-0.6-0.2-1.1l-1.3,0.8
	c-0.6-0.6-0.6-0.6-0.2-1.2c-0.4-0.3-0.7-0.7-1-1.1c-0.3-0.4-0.5-0.3-0.9-0.1l-0.3-0.7c-0.1,0-0.1-0.1-0.2-0.1c-0.7,0.1-1.3,0.1-2,0
	c-0.1,0-0.2,0-0.3,0l-0.6,0.1l0.5,1.2l-1.2-0.8l0.1,0.5l-3.9-0.5l-0.7-0.8l-0.5,0.2c-0.4-0.2-0.7-0.5-1-0.8
	c-0.1-0.1,0.1-0.3,0.2-0.6c-1,0.3-1.3-0.5-2-1.1c0.5-1,1-1.9,1.6-2.9c0.3-0.5,0.9-0.4,1.4-0.5c0.8-0.1,1.5-0.1,2.3,0
	c0.2,0,0.4,0.2,0.7,0.4c0.6-0.5,1.5-0.5,2.1,0c0.5-0.4,1-0.8,1.7-0.4c0.1,0.1,0.3-0.1,0.5-0.1c0.9-0.2,1-0.1,1.4,0.8
	c0.1,0.2,0.1,0.4,0.2,0.6l-1.1,0.3c0.8,0.3,1.4,0.5,2.1,0.7c0.3,0.1,0.5,0.1,0.8,0c0.5-0.1,0.9,0,1.1,0.6c0.2,0.4,0.6,0.8,0,1.2
	c0,0.2,0.1,0.3,0.2,0.5l0.5-0.6l0.3,0.6l0.8-0.6c0.1,0.5,0.8,0.3,0.7,0.9l0.1,0.1c0.6-0.4,0.8,0.3,1.2,0.3
	C136.6,44.6,137,44.6,137.4,44.7z M122.9,41.8v-0.2c-0.1,0-0.2,0-0.3-0.1c-0.3-0.1-0.5-0.4-0.4-0.7c0-0.1,0.1-0.2,0.2-0.3l1-1
	c-0.9-0.1-1.5,0.2-1.8,0.8c-0.4,0.7-0.4,1.6,0.1,2.3c0.1,0.2,0.2,0.5,0.3,0.8l0.5,0.1l0.2-0.9l-0.8-0.6L122.9,41.8z M137.2,51.9
	c-0.4-0.9-1.4-0.6-1.9-1.3c-0.5,0.8,0,1.3,0.2,1.8L137.2,51.9z M125.9,42.7c0.7,0,0.1-0.5,0.4-0.7s0.4-0.4,0.9-0.2
	c0.3,0.1,0.5,0.3,0.7,0.5l0.3-0.5l0.8,0.2c-0.9-1.1-2.1-0.6-3.2-0.7V42.7z M134.8,54v1.2l1-0.1l-0.2-1L134.8,54z"/>
<path class="st1" d="M96.4,48.2c-0.1-0.7-0.5-0.9-1.1-0.9c-0.5,0-1-0.3-1.4-0.7c-0.3-0.3-0.3-0.6-0.1-1c1.2,0.1,2.4-0.6,3.7-0.3
	c0.4,0.1,0.9-0.1,1-0.6c0,0,0,0,0-0.1c-0.3-0.1-0.6-0.1-0.9-0.2c-0.5,0-0.9,0-1.4,0c-0.9,0-1.8,0.1-2.7,0.1c-0.3,0-0.5-0.1-0.8-0.2
	v-0.2l1.9-0.7v-0.2l-2.1,0.4l0.1-0.5h-1.2c0.1-0.2,0.2-0.4,0.4-0.7c0.4-0.3,0.7-0.7,0.9-1.2c0.1-0.4,0.8-0.7,1.3-0.8
	c0.6,0,1.1-0.3,1.6-0.7c0.2-0.2,0.5-0.4,0.8-0.2c0.2,0.2,0.3,0.4,0.2,0.7c0,1.1,0.2,1.3,1.3,1.5l0.1-1.7c0.7,0,1.3,0.5,1.5,1.1
	l0.8-0.9c0.5,0,1,0.4,1.1,0.9c0.2,0.4-0.1,0.9-0.1,1.4l0.2,0.1l0.7-1c0.4,0,0.7,0,1.1,0c0.5,0,0.9,0.3,1,0.8c0.3,0.7,0.6,1.4,1.1,2
	c0.2,0.4,0.5,0.4,0.9,0c0.4,0.9,1.2,1,2.1,0.8l0.1,1.3l-1.3-0.8l0.3,1.3c-1.1,0.7-1.5,0.8-3.8-0.2l0.1-0.6c-0.1,0-0.2-0.1-0.2,0
	c-1,0.7-2,1.2-3.1,1.5c-0.4,0.1-0.9,0.2-1.3,0.3c-0.3,0-0.5,0-0.8,0.1C97.7,48.5,97,48.5,96.4,48.2z M106.1,46.2l-0.2,0.2
	c0.2,0.3,0.3,0.6,1,0.4L106.1,46.2z"/>
<path class="st1" d="M328.1,145.4c-0.4,0.5-0.6,1-0.9,1.1c-0.7,0.1-1.3,0.1-2,0c-0.1,0-0.3-0.2-0.3-0.3c-0.2-0.8-0.8-0.6-1.4-0.6
	c-0.3,0-0.6,0.1-0.9,0.2l-0.1-0.2l1-0.8c0-0.2-0.1-0.4-0.1-0.6c-0.1-0.4-0.2-0.8-0.3-1.2c-0.1-0.2-0.2-0.6-0.3-0.7
	c-0.9-0.1-1.5-1.1-2.4-1.1c-0.3,0-0.6-0.1-0.7-0.4c-0.4-0.6-0.7-0.6-1.3-0.2l-0.8-1.2l1.2-0.3v-0.2c-0.9,0.2-1.4-0.5-2.2-0.8
	c0.1-0.2,0.2-0.5,0.4-0.6c0.8-0.6,1.6-0.3,2.5-0.1c-0.1,0.5-0.1,1,0,1.4c0.2,0.4,0.5,0.8,0.8,1.2c0.7,0,0.8-0.6,1.1-0.9
	c0.4-0.3,0.7-0.6,1.1-0.8c0.8,0.5,1.6,0.8,2.5,0.9c0.2,0,0.5,0.3,0.7,0.4c0.6,0.3,1.2,0.5,1.8,0.8s1.2,0.6,1.8,1c0,0,0,0,0.1,0.1
	c0.4,0.9,1.1,1.5,2.1,1.8c0.4,0.1,0.4,0.6,0,0.9c-0.4,0.3-0.4,0.8-0.2,1.1c0,0,0.1,0.1,0.1,0.1c0.5,0.5,0.9,1,1.4,1.6l1.2,1.3
	c-0.9,0-1.8-0.2-2.6-0.7c-0.4-0.5-1-0.8-1.2-1.5c-0.1-0.2-0.2-0.3-0.4-0.4C329.1,145.6,328.5,145.5,328.1,145.4z"/>
<path class="st1" d="M304.6,131.7c0.1,0.8,0.2,1.6,0.4,2.4c0.2,0.4,0.4,0.7,0.7,1.1l-0.9,0.4c0,0.9-0.2,1.8-0.6,2.6
	c-0.2,0.3-0.1,0.7-0.4,1.1c-0.3,0.5-0.8,0.9-1.4,1.1c-0.5-0.3-1.2-0.4-1.8-0.3c-0.3,0.1-0.6,0.1-0.9-0.2c-0.2-0.1-0.4-0.2-0.6-0.1
	c-0.5,0.1-0.7-0.1-0.8-0.6c-0.1-0.3-0.2-0.6-0.2-0.9c0-0.2-0.1-0.4-0.2-0.5c-1.1-1-1.2-2.6-0.3-3.7c0,0,0,0,0.1-0.1l1.3,0.5
	c0.1-0.1,0.3-0.3,0.3-0.5c0-0.5,0.4-1,0.9-1c0,0,0.1,0,0.1,0c0.5,0,0.9-0.3,1-0.7c0.2-0.5,0.6-0.9,1.1-1.1c0.4-0.2,1-0.3,0.6-1
	c0-0.1,0.2-0.2,0.2-0.3l0.9-1.2c0.5,0.1,0.9,0.2,1.1,0.9c0.1,0.4,0.6,0.6,0.9,0.9c-0.2,0.4-0.9,0.4-0.8,1
	C305.1,131.5,304.8,131.6,304.6,131.7z"/>
<path class="st1" d="M243.1,150.2c0.3,0.4,0.6,0.8,0.8,1.2c0.5,1.7,0.5,1.8,0.1,2.6l-0.4-0.3c0,0.1-0.1,0.1-0.1,0.1
	c0.5,1.2-0.1,2.3-0.4,3.4c-0.2,0.7-0.4,1.3-0.6,2c-0.2,0.9-0.5,1.8-0.7,2.7c-0.2,0.6-0.4,1.2-0.6,1.9c-0.2,0.7-0.8,1.1-1.5,1.1
	c-0.5,0-1-0.3-1.3-0.7c-0.4-0.9-0.8-1.9-1-2.8c-0.1-0.9,0.2-1.7,0.8-2.3c0.4-0.4,0.5-1,0.3-1.5c-0.1-0.3-0.2-0.6-0.2-0.9
	c-0.3-1,0.2-2.2,1.2-2.5c0.2-0.1,0.4-0.2,0.6-0.2c0.5-0.1,0.9-0.4,1.1-0.8c0.2-0.4,0.8-0.5,0.7-1c0,0,0-0.1,0-0.1
	c0.1-0.4,0.8-0.3,0.7-0.8c0-0.3,0.1-0.7,0.2-1L243.1,150.2z"/>
<path class="st1" d="M251,45.1l-1-0.1c-0.2,0.3-0.6,0.5-0.9,0.4c-0.6-0.1-1.3-0.1-1.9,0c0-0.5,0-1,0.8-1.1c-0.6-0.2-1.2-0.1-1-0.8
	l-1.4,0.3c-0.5-1-0.4-1.1,0.5-1.4l0.4-1.7l0.8-0.3c0-0.4,0.1-0.9-0.6-1.2c0.9-0.5,1.7-1.2,2.4-2c0.3-0.3,0.8-0.5,1.3-0.6
	c0.6-0.1,1.3-0.3,1.8-0.6l2.1-0.7c0.3-0.5,0.3-0.5,1-0.2s1.3,0,1.9-0.2c0.7-0.3,1.4-0.6,2-0.9c0.5-0.2,0.8-0.2,1,0.2
	s0.2,0.7-0.3,0.9c-0.5,0.2-1,0.4-1.5,0.6c-1.1,0.3-2.3,0.5-3.4,0.8c-0.2,0.1-0.4,0.1-0.6,0.2c-0.7,0.5-1.4,0.8-2.2,1
	c-0.1,0-0.2,0.1-0.3,0.2c-0.7,0.7-1.4,1.4-1.9,2.3c-0.5,1-1.1,2.1-0.4,3.3c0.3,0.5,0.6,0.8,1.6,1.2L251,45.1z"/>
<path class="st1" d="M194.7,64.1c0.2-0.1,0.5-0.1,0.7-0.1c0.2,0,0.5,0.1,0.7,0.1c-0.1,0.2-0.2,0.5-0.3,0.7c-0.2,0.3-0.5,0.6-0.7,0.8
	l2.3-0.1c-0.3,0.6-0.5,1.1-0.7,1.5c-0.1,0.3-0.1,0.7-0.2,1.1c0.5,0.4,1,1,1.2,1.6c0.1,0.4,0.5,0.6,0.8,0.9s0.7,0.3,0.6,0.9
	c-0.1,0.3,0.2,0.7,0.3,1c0.3,0,0.6,0,0.9,0.1c0.1,0,0.2,0.1,0.3,0.3c0.1,0.9-0.5,1.2-1.2,1.6l0.7,0.4c-0.2,0.4-0.6,0.6-1,0.5
	c-0.7-0.1-1.4,0-2,0.2c-0.2,0-0.3,0-0.5,0.1c-0.3,0-0.5,0.1-0.8,0.2s-0.3,0.2-0.4,0.1c-0.5-0.1-1,0.1-1.2,0.5c-0.1,0.1-0.4,0-0.6,0
	c0.3-0.5,0.7-1,1.1-1.5c0.2-0.2,0.7-0.2,1.1-0.2s0.7,0,0.6-0.5c-0.6,0.1-1.2,0.1-1.8,0.1c-0.1,0-0.3-0.1-0.4-0.2
	c0-0.1,0.1-0.3,0.2-0.4c0.2-0.2,0.5-0.3,0.6-0.5s0-0.5-0.3-0.5l0.2-1.1l1.2,0.2l0.3-1.1c-0.2-0.3-1.1-0.2-0.4-1l-1.6,0.1v-1.7
	l-0.6-0.1l0.3-0.5C193.3,66.3,194.3,65.3,194.7,64.1z"/>
<path class="st1" d="M292.1,137.2l0.9,0.4c0.1,0.6,0.1,1.2,0.9,1.4c0.3,0.1,0.5,0.8,0.5,1.2c0,0.6-0.1,1.2-0.2,1.9
	c-0.3,0.1-0.6,0.2-1,0.3c-0.1,0-0.3,0.1-0.3,0c-0.6-0.6-1.6-0.9-1.9-1.9c-0.4-1.1-0.9-2.2-1.5-3.2c-0.3-0.4-0.6-0.9-1-1.2
	c-0.2-0.2-0.3-0.5-0.4-0.8c-0.2-0.6-0.2-1.4-1-1.6c-0.4-1.1-1.4-1.8-2.1-2.7c-0.4-0.3-0.5-0.9-0.3-1.3c0.2,0,0.4,0,0.6,0.1
	c0.1,0,0.3,0.3,0.4,0.2c1.3-0.2,1.6,0.9,2.3,1.6l0.7,0.7c0.1,0.1,0.3,0.1,0.3,0.2c0.2,0.9,1,1.2,1.5,1.9c0.2,0.2,0.5,0.4,0.7,0.6
	c0.9,0.3,1.3,1.3,1,2.2C292.2,137.1,292.1,137.2,292.1,137.2z"/>
<path class="st1" d="M117.4,34.4l0.8,0.5l-0.6,0.5c0,0,0.1,0,0.1,0c0.2,0,0.4,0.1,0.7,0.2c0.6,0.3,1.2,0.4,1.8,0.4
	c1-0.1,1.9-0.2,2.8-0.4c0.8-0.2,1.6-0.1,2.4,0.2c0.2,0.1,0.4,0.1,0.6,0.2c0.5,0,1,0.3,1.3,0.7l-0.9,1.2c-0.3,0.1-0.7,0.1-1,0.1
	c-1.3-0.2-2.6,0.2-3.9,0.1c-0.6,0-1.2,0-1.8,0c-0.6,0-0.6,0-1-0.6c-0.6,0.9-1.6,0.5-2.5,0.7c-0.1-0.6-0.1-1.1,0-1.7
	c0.1-0.5,0.1-0.9-0.3-1.1c-0.4-0.3-0.8-0.5-1.3-0.6c-0.9,0.2-1.9-0.2-2.4-1c0.1-0.5,0.5-0.6,0.9-0.5c0.4,0.1,0.8,0.1,1.1,0.2
	c0.2,0.1,0.4,0.1,0.6,0.2c0.2,0.1,0.4,0.3,0.6,0.3C116.2,33.9,116.8,34,117.4,34.4L117.4,34.4z"/>
<path class="st1" d="M325.2,88c0.4,0.3,0.7,0.7,1,1.1c0.6,0.8,0.4,1.9-0.3,2.6c-0.1,0.1-0.3,0.2-0.3,0.4c0.1,1-0.4,2-0.2,3
	c0,0.3-0.1,0.6-0.2,0.9c-0.4,0.3-0.6-0.3-0.9,0.1c-0.1,0.2-0.3,0.4-0.4,0.5c-0.2,0-0.5,0-0.7,0c-0.4,0.2-0.9,0.2-1.3-0.1
	c-0.2,0.4-0.5,0.7-0.8,1c-0.1,0.2-0.6,0.3-0.7,0.2c-0.2-0.2-0.3-0.5-0.3-0.8c0-0.1,0-0.3,0.1-0.4l-0.8-0.1l0.4,0.9
	c0,0.6-0.6,0.7-1,0.8l-0.4,0.9l-0.6-1c0.2-0.5,0.7-1,1.3-1.1c-0.9-0.1-1.6,0.6-2.5,0.1c0.7-0.2,1.3-0.6,1.7-1.1
	c0.1-0.1,0.3-0.2,0.4-0.2c0.4-0.1,0.7-0.2,1.1-0.2c0.3,0,0.7,0.1,1,0.2c0.3-0.7,0.5-1.4,0.8-2.1l0.3,0.6c0.6-0.2,1-0.5,1.4-1
	c0.2-0.5,0.7-0.9,1-1.3c0.3-0.5,0.5-1.1,0.4-1.7C324.8,89.2,324.9,88.6,325.2,88z"/>
<path class="st1" d="M87.1,38.6c0.9-0.3,1.7-0.6,2.6-0.8c0.2,0,0.4,0,0.5,0.1c0.8,0.5,1.7,0.7,2.6,0.6c0.9-0.1,1.8,0.3,2.3,1
	c-0.1,0.4-0.4,0.3-0.7,0.4c-1.1,0.2-2.1,0.7-2.8,1.5c-0.2,0.2-0.4,0.5-0.5,0.7c-0.4,1-0.7,1.2-2,0.9c-0.1,0.2-0.3,0.4-0.5,0.6
	c-0.2,0.3-0.7,0.3-0.9,0c0,0-0.1-0.1-0.1-0.1l-1-1.2C87.2,41.2,87.3,39.9,87.1,38.6z"/>
<path class="st1" d="M214.2,31.8l-1.8-0.9c-0.4,0.1-0.8,0.8-1.5,0.7c-0.3-0.4-0.5-0.8-0.7-1.2c-0.1-0.4,0-0.8-0.2-1.2
	c0.1-0.2,0.2-0.3,0.3-0.4c0.4-0.1,0.8-0.2,1.3-0.2l-0.1,0.9c0.8-0.8,0.8-0.8,1.7,0.3c0-0.6,0.3-1.2,0.8-1.6c0.4,0.1,0.8,0.3,1.1,0.5
	c0.5,0.4,0.8,0.8,1.1,1.3c0.2,0.5,0.7,0.9,1.2,0.9c0.2,0.1,0.3,0.1,0.5,0.2c-0.4,0.1-0.6,0.2-0.8,0.3c-0.4,0.2-0.7,0.3-0.6,0.9
	c0,0.4-0.1,0.7-0.4,1c-0.5,0.3-0.7,1-1.4,1c-0.1,0-0.2,0.2-0.2,0.3c-0.2,0.5-0.5,0.6-0.7,0.2s-1-0.6-1.5-0.8s-0.5-0.1-0.6-0.8
	l0.8,0.1l0.3-0.8l-1.3,0.1l-0.1-0.6c0.5-0.1,1-0.2,1.5-0.2S213.7,31.9,214.2,31.8L214.2,31.8z"/>
<path class="st1" d="M177.9,54.6l1.1-0.5v-0.5l-1.3,0.3l0.8-1.2l0.8,0.5l-0.2-0.6c0.8-0.1,0.9,0,1.1,1.5l1-1.2c0,0,0.1,0,0.1,0.1
	c0.1,0.1,0.1,0.1,0.2,0.2l0.9-0.6l0.2,0.5c0.6-0.5,1.7,0.1,2.1-0.9c1.1,0.5,1.1,0.5,1.3,1.3c0.1,0,0.3,0.1,0.4,0.1s0.3,0.2,0.4,0.2
	l0.1,0.8c-1.2,0.7-2.1,1.9-3.8,1.6c-0.3,0.1,0.1,0.7-0.4,0.7s-1.1,0.3-1.5-0.2c-0.4-0.6-1-0.5-1.5-0.4c-0.2,0-0.5,0-0.7,0v-0.2
	l0.7-0.4C179,54.8,179,54.8,177.9,54.6z"/>
<path class="st1" d="M354.2,183.8l0.5,1h1c-0.1,1-0.5,1.9-1.1,2.6c-0.3,0.4-0.3,0.4-0.2,0.9l-1.4,0.6c-0.2,1-0.6,1.9-1.3,2.6
	c-0.3,0.3-0.8,0.4-1.3,0.2l-1.8-0.7c0.4-1.3,1.3-2.3,2.5-2.8c0.9-0.4,1.5-1.1,1.9-2c0.2-0.6,0.7-1.1,0.7-1.8
	C353.6,184.3,354,184.1,354.2,183.8z"/>
<path class="st1" d="M96.1,38c0.8-0.8,1.8-0.8,2.9-1.1c-0.4-0.3-1-0.5-1.5-0.3c-0.4,0.1-0.8,0.2-1.3,0.3l-0.2-1
	c-0.1,0.3-0.1,0.5-0.2,0.6c-0.1,0.6-0.1,0.6-0.8,0.5c-0.5,0-0.9-0.1-1.4-0.2l0.5-0.4l-0.4-0.2l0.7-0.3l-0.2-0.7
	c0.8-0.4,1.8-0.4,2.6,0c0.6,0.3,1.2,0.6,1.8,0.8c0.6,0.1,1.2,0.1,1.8,0.1c-0.3-0.3,0-0.9-0.6-1.1c-0.1,0-0.1-0.3-0.1-0.4
	c0-0.3,0-0.6,0.1-1c0.3-0.2,0.6,0,0.6,0.3c0,0.6,0.6,0.7,0.9,1c0.1,0.1,0.4,0,0.6-0.1c0,0.5,0.3,0.9,0.7,1l0.2-0.8
	c0.3,0,0.6,0.2,0.6,0.5c0.1,0.4,0.1,0.8,0.1,1.3c0,0.1-0.3,0.3-0.5,0.4c-0.6,0.2-1.2,0.3-1.8,0.2c-0.6-0.1-1.3,0-1.9,0.2
	c-0.4,0-0.7,0.2-1,0.5c-0.4,0.5-1,0.7-1.6,0.6C96.6,38.3,96.3,38.2,96.1,38z"/>
<path class="st1" d="M309.5,141.5c-0.5-0.2-0.7,0.2-0.9,0.7c-0.7-0.6-0.5-1.6-1-2.3c-0.1,0.2-0.3,0.3-0.3,0.5
	c-0.1,0.7-0.1,1.3-0.2,2.1l-0.9,0.1c-0.2-0.4-0.2-0.9,0-1.2c0.2-0.3,0.2-0.7-0.1-0.9c0,0,0,0,0,0c-0.5-0.3-0.3-0.8-0.2-1.1
	c0.1-0.4,0.1-0.8,0.2-1.1c0.2-0.7,0.4-1.4,0.4-2.2c0-0.6,0.9-1,1.6-0.8c0.9,0.5,2.1,0.3,2.8-0.4c0.1-0.1,0.2-0.1,0.3-0.2
	c0,1.1-0.6,1.6-1.6,1.5c-0.8-0.1-1.6-0.1-2.3-0.2c-0.4,1.2-0.4,1.2,0.3,1.6l1.9-0.1l0.1,0.9l-1.8,0.4
	C308.7,139.5,309.2,140.4,309.5,141.5L309.5,141.5z"/>
<path class="st1" d="M111.4,39.9l-0.9,0.3l1.1,1l0.6-0.2c0.1,0.3,0.2,0.5,0.2,0.8c0,0.4-0.2,0.7-0.5,1c-0.6,0.4-1.3,0.7-2,1L108,42
	c-1.1,0.3-1.6-0.1-1.6-1.3c0.7,0.1,1.3,0.9,2.2,0.3l0.1-0.6l-0.9-0.4c0.2-0.9,0.3-0.9,1-0.8c0.5,0.1,0.9-0.4,1.3-0.5
	c0.2,0,0.3-0.2,0.5-0.3c0.1,0.3,0.2,0.6,0.3,0.7S111.5,39.3,111.4,39.9z"/>
<path class="st1" d="M216.5,28.3c0.6-0.2,0.6-0.7,0.8-1.2l2.8,1.3l1-0.7l0.3,0.6c0.9-0.9,1.7,0.2,2.6,0c-0.2,0.8-0.8,1.1-1.3,1.5
	c-0.2,0.2-0.6,0.2-0.8,0.6c-0.1,0.1-0.4,0.2-0.6,0.2c-0.8-0.1-1.6-0.2-2.4-0.3c-0.4-0.1-0.9-0.1-1.4-0.1s-0.3,0-0.6-0.5l1.4-0.2
	v-0.2c-0.3-0.1-0.7-0.1-1.1,0.1c-0.4,0.2-0.8,0.1-1.1-0.2L216.5,28.3L216.5,28.3z"/>
<path class="st1" d="M151.5,79.1c-0.2,0-0.4-0.1-0.5,0c-0.3,0.2-0.6,0.5-0.9,0.8l-0.2-1c-0.9,0-1.7,0-2.5,0c-0.3,0-0.6,0.1-1,0.1
	c-0.2,0-0.3,0-0.4-0.1c0-0.1,0-0.3,0.1-0.4c0.2-0.2,0.6-0.4,0.2-0.8l0.9-0.7c0-0.1-0.2-0.2-0.1-0.4c0.1-0.4,0.2-0.8,0.2-1.2
	c0-0.8,0.7-1.4,1.4-1.4c0,0,0.1,0,0.1,0c0,0.8-0.9,1.4-0.8,2.2c0.8-0.3,0.8-0.3,1.1,0.5l1.9-0.1c-0.1,0.5-0.2,1,0.2,1.4l0.8-0.1
	C151.5,78.2,152,78.8,151.5,79.1L151.5,79.1z"/>
<path class="st1" d="M354.5,176.8c1,0.3,1.7,0.6,1.7,1.6c0.1,0.5,0.2,0.9,0.4,1.4l0.5-0.4c0.1,0.1,0.2,0.3,0.3,0.4
	c0.2,1.1,0.6,1.3,1.6,0.9c0.2,0,0.4,0,0.5,0c0,0.2,0.1,0.4,0,0.6c-0.2,0.5-0.3,1.1-1,1.2c-0.1,0.1-0.2,0.2-0.2,0.3
	c0,0.9-0.8,1.4-1,2.2c0,0.1-0.1,0.1-0.3,0.2l-0.9-0.4c0.1-0.5,0.6-1,0.1-1.5c-0.4-0.4-0.8-0.7-1.2-1c0.2-0.1,0.3-0.2,0.4-0.3
	c0.5-0.4,0.7-1,0.5-1.6c-0.1-0.8-0.4-1.6-0.9-2.3C354.9,177.8,354.7,177.3,354.5,176.8z"/>
<path class="st1" d="M285.9,26.2c0.6,0.4,1.1,0.9,1.7,1.4c0.1,0.1,0.1,0.5,0.1,0.6l1,0.9l0.4-0.3l0.5,0.6c0,0.1-0.1,0.2-0.2,0.3
	c-0.7,0.7-1.7,1-2.6,0.7c-0.9-0.2-1.8-0.4-2.8-0.6l2-1.3c-0.4,0.1-0.9,0.2-1.4,0.2c-0.5-0.1-0.9-0.3-1.4-0.5c0.5-0.2,1-0.6,1.3-1
	C284.7,26.7,285.4,26.5,285.9,26.2z"/>
<path class="st1" d="M88.2,35.7l-0.8-0.9l3.3-2.2c0.7-0.4,1.5-0.4,2.2-0.1c0.7-0.8,0.8-0.9,1.2-0.6c0.6,0.4,0.6,0.7,0.1,1.6
	l-0.6-0.1c0.2,0.9-0.7,0.8-1,1.3c-0.7-0.1-0.2-0.6-0.3-1.1c-0.6,0.7-1,1.2-1.5,1.8c-0.2,0.3-0.4,0.3-0.8,0.2
	C89.5,35.5,88.8,35.5,88.2,35.7z"/>
<path class="st1" d="M193.6,69.5l0.3,1c-0.3,0.2-0.6,0.4-0.8,0.7c-0.1,0.3-0.1,0.7,0,1c0.2,0.5,0,1.1-0.5,1.3
	c-0.4,0.3-0.9,0.6-1.4,0.9c-0.4,0.2-0.9,0.1-1.3-0.1c-0.2-0.1-0.3-0.3-0.2-0.5c0,0,0-0.1,0.1-0.1c0.2-0.2,0.3-0.4,0.5-0.7
	c0.1-0.2,0.2-0.5,0.4-0.7l-0.8-0.4c-0.1-0.5,1-0.6,0.3-1.3c0.2-0.1,0.5-0.1,0.7-0.1c0.4,0,0.5-0.3,0.7-0.6s0.1-0.5,0.3-0.6
	c0.3-0.1,0.6-0.1,0.8,0C193.1,69.4,193.4,69.4,193.6,69.5z"/>
<path class="st1" d="M302.2,145.6c-0.2,0-0.5,0.1-0.6,0c-1.3-0.6-2.8-0.4-4-1c-0.2,0-0.3,0-0.5,0c-0.9,0.2-1.7-0.4-2.5-0.6
	c-0.3-0.1-0.5-0.6-1-0.3c0.2-0.5,0.4-0.9,0.5-1.2c0.6,0,1.1,0,1.7,0c0.3,0.1,0.6,0.2,0.9,0.3c0.5,0.1,1.1,0.4,1.5,0.3
	c0.5-0.2,1.1-0.2,1.7,0.1c0.2,0,0.3,0.1,0.5,0.1l0.2,1l1.1,0.1l0.6,1.2L302.2,145.6z"/>
<path class="st1" d="M327.5,72.5c0.1-0.5-0.4-1,0.2-1.3c0.1,0,0.2,0.1,0.2,0.1c0,1,0.5,1.9,0.3,2.9c-0.1,0.8-0.1,1.6,0,2.3
	c0,0.2,0.2,0.3,0.3,0.5c0.2,0.3,0.4,0.6,0.5,1l-0.3-0.2c-0.5-0.4-0.8-0.3-0.9,0.2c-0.2,1.1-0.7,2.2,0.1,3.3c0.1,0.2,0.1,0.4,0.2,0.8
	l-0.9-0.8l-0.5,0.4c0-0.2,0-0.4,0-0.6c0.2-1.9,0.2-3.7,0.1-5.6c0-0.6-0.1-1.1-0.2-1.7C326.6,73.4,326.9,72.8,327.5,72.5z"/>
<path class="st1" d="M106.9,35.8l0.8,0.1l-0.5-1.5l0.2-0.2c0.6,0.3,0.8,1.1,1.4,1.4c0.2-0.4-0.1-0.7-0.4-1.1l0.5-0.2l-0.4-0.4
	c0.6-0.3,0.6-0.3,1,0.6l0.3-0.8c0.1,0,0.2,0,0.2,0.1c1,0.7,0.9,2,1.3,3c0,0.1-0.2,0.5-0.4,0.6c-0.9,0-1.7,0-2.7,0l0.3-1l-2,0.5
	L106.9,35.8L106.9,35.8z"/>
<path class="st1" d="M329.9,85.7c-0.2,0.1-0.5,0.2-0.7,0.2c-0.6-0.1-1.3,0.3-1.4,0.9c0,0,0,0.1,0,0.1c-0.8,0.1-0.8,0.1-1.4-0.5
	l-1.1,0.2l0.6,0.7l-0.8,0.4l-0.4-1.2l0.6-0.9l0.6,0.2c0.1-0.1,0.2-0.1,0.2-0.2c0.1-0.3,0.2-0.6,0.2-0.9c0.1-0.5,0.4-1,0-1.5
	c-0.1-0.1,0-0.3,0.1-0.5c0.2,0.1,0.4,0.1,0.5,0.2c0.2,0.3,0.4,0.6,0.6,0.9c0.3,0.4,0.5,0.9,1.2,0.7c0.3-0.1,0.6,0.2,1,0.4
	L329.9,85.7z"/>
<path class="st1" d="M307.7,121c-0.2-0.4-0.6-0.7-0.4-1.2c0-0.1,0-0.2,0-0.2c-0.8-0.2-0.5-1-0.9-1.5c0.7-0.2,0.7-0.7,0.7-1.2
	s0.1-1.2,0.2-1.9l1.4,0.2c0,0.2-0.1,0.6,0,0.8c0.5,0.7,0.1,1.3-0.3,1.8c-0.5,0.6-0.5,1.4-0.2,2.1l1.8,0.2l0.3,1.4l-0.1,0.1
	c-0.2-0.2-0.5-0.3-0.5-0.5c-0.2-0.5-0.8-0.3-1.2-0.6C308.4,120.6,308,120.9,307.7,121L307.7,121z"/>
<path class="st1" d="M123.3,110.9c-0.1-0.6,0.2-1.2,0.9-1.4c0.1,0,0.2,0,0.2,0c0.8,0,1.7,0.1,2.5,0.2c0.9,0.8,2.1,1,3.1,1.8
	c0.6,0.5,1.3,0.8,2.1,1.2c-0.4,0.6-0.5,0.6-2.8,0.6l0.2-0.6c-0.3-0.1-0.5-0.3-0.8-0.5c-0.2-0.2-0.4-0.5-0.5-0.8
	c-0.6,0-1.1-0.2-1.5-0.6c-0.5-0.4-1-0.6-1.5-0.8c-0.3,0-0.6,0.1-0.9,0.2C123.9,110.4,123.6,110.7,123.3,110.9z"/>
<path class="st1" d="M309.7,126.6l0.4,0.4c0.7-0.1,1.4-0.6,1.7-1.2c0.5,0.4,0.8,1.1,0.7,1.8c-0.2,0.4-0.4,0.7-0.5,1.1
	s-0.2,0.8-0.3,1.2c-1.6-0.4-1.7-0.9-1.3-1.7c-1-0.3-1.3-0.3-1.8,0.2C308.3,127.4,308.9,127,309.7,126.6z"/>
<path class="st1" d="M328.4,183.9c1.2,0,2.1,1.1,3.1,0.1c0.8,1-0.2,1.9,0,2.9l-0.5-0.1c-0.1,0.2-0.2,0.6-0.5,0.7
	c-0.4,0.1-0.7-0.1-0.9-0.5c-0.2-0.3-0.3-0.7-0.5-1s-0.3-0.7-0.5-1.1S328.6,184.3,328.4,183.9z"/>
<path class="st1" d="M104.5,31.5c0.3-1-0.7-1-1-1.4c0.3-0.8,0.8-0.7,1.8,0.1l0.3-0.5l0.6,0.3c0.2,0.1,0.3,0.1,0.5,0.1
	c0.3,0.1,0.6,0.1,0.8,0.2c0.6,0.2,1,0.7,1.7,0.7c0.3,0,0.6,0.6,0.7,1c0.1,0.1-0.1,0.5-0.2,0.6c-0.2,0.1-0.4,0.1-0.6-0.1
	c-0.3-0.2-0.7-0.5-1-0.7c-0.9-0.7-2.1-0.8-3.1-0.3C104.8,31.5,104.6,31.5,104.5,31.5z"/>
<path class="st1" d="M123.6,56.2c0.1-0.4,0.3-0.8-0.2-0.8c-0.2,0-0.4,0.3-0.6,0.5s-0.1,0.7-0.3,0.9c-0.2,0.4-0.5,0.4-0.9,0
	c-0.1-0.1-0.3-0.2-0.4-0.3c-0.1-0.1-0.3-0.1-0.4-0.2c0-0.2,0.1-0.3,0.2-0.5c0.2-0.2,0.4-0.3,0.6-0.4c-0.2-0.7-0.1-1.4,0.2-2.1
	l0.3,0.1l-0.1,0.6c1.3-0.1,1.9,0.8,2.5,1.8h0.9l-0.2,0.8L123.6,56.2z"/>
<path class="st1" d="M137.7,114.9c-0.9-0.3-1.5,0.3-2.2,0.2c-0.2,0-0.4,0.2-0.6,0.4c-0.6-0.4-1.3-0.2-2-0.3c-0.5,0-0.5,0-0.9-0.6
	l1.9,0.2l-0.4-1.3l1.3-0.1c0.2,0,0.4,0,0.6,0c0.6,0.2,1.2,0.5,1.9,0.8C137.4,114.4,137.5,114.6,137.7,114.9z"/>
<path class="st1" d="M293.4,31.1l-1.2,0.4c-0.2,0.1-0.3,0.2-0.5,0.2c-0.8-0.2-1.7,0-2.4,0.4c0,0-0.1,0-0.2-0.1
	c0.4-0.9,0.9-1.8,1.4-2.6c0.1-0.1,0.3-0.2,0.5-0.1c0.7,0.3,1.3,0.7,1.9,1.1C293.2,30.5,293.2,30.8,293.4,31.1z"/>
<path class="st1" d="M270.9,125.4c0.5,0.8,1,1.5,1.3,2.3c0.3,0.6,0.1,1.3-0.4,1.6c0,0-0.1,0-0.1,0.1c-0.5,0.3-1,0.2-1.1-0.4
	c-0.2-0.7-0.3-1.4-0.1-2.1c0.1-0.5,0.2-0.9,0.2-1.4L270.9,125.4z"/>
<path class="st1" d="M323.9,35.7c0.2,0.1,0.5,0.3,0.7,0.4c0.8,0.6,0.8,1,0.2,1.9c0,0.1-0.1,0.2-0.2,0.2c-0.3,0.2-0.5,0.6-0.8,0.6
	c-0.5,0-0.7-0.4-0.9-0.8C322.6,37.1,322.8,36.6,323.9,35.7z"/>
<path class="st1" d="M109.5,47.7l1.2-1.6c1.1,0.2,2,0.5,2,1.9c-0.4,0.2-0.8,0.3-1.2,0.5c-0.1,0-0.4,0.1-0.4,0
	C110.6,48.1,110.1,47.8,109.5,47.7z"/>
<path class="st1" d="M97,32.3c1.1-0.2,2-1.1,3.4-0.5l-0.8,0.6c0,0.2,0.1,0.4,0,0.6s-0.3,0.3-0.5,0.4c-0.2,0.1-0.4,0.1-0.5,0.2
	C97.5,33.9,96.9,33.4,97,32.3z"/>
<path class="st1" d="M221.2,33.6c-0.7,0.5-1.6,0.6-2.4,0.4c-0.3,0-0.6,0-0.9,0.1l0.1-1.3l-0.9-0.7c0.7-0.5,0.7-0.5,1.7-0.2l-0.1,0.9
	c0.5-0.2,1.1,0,1.5,0.4C220.5,33.4,220.8,33.5,221.2,33.6z"/>
<path class="st1" d="M315.5,97.9l1.3-0.8l0.9,1.4l-0.8,2.2l-0.9-0.4l0.3-1.2C315.4,99.1,316,98.2,315.5,97.9z"/>
<path class="st1" d="M113.5,32l-1.5,0.5c-0.7-0.2-0.6-1.3-1.5-1.3l0.1-1.2l2.1,0.9C113.3,31.2,113.3,31.2,113.5,32z"/>
<path class="st1" d="M237.4,27.6c0.7-0.6,1.5-0.9,2.4-0.9c1.2-0.3,2.4-0.1,3.4,0.5l-1.8,0.1c-0.1,0-0.2,0-0.3,0
	c-0.6,0.5-1.3,0.3-1.9,0.4C238.6,27.8,238,27.8,237.4,27.6z"/>
<path class="st1" d="M299,114.3c-0.3,0.5-0.3,1.2-0.9,1.6c-0.4,0.3-1,0.2-1.4-0.2c-0.2-0.3-0.2-0.7,0-0.9c0,0,0,0,0.1,0
	c0.5-0.4,1-0.7,1.6-0.8C298.8,113.8,299,113.9,299,114.3z"/>
<path class="st1" d="M328.2,41l-3.2-0.5c0.7-0.7,1.1-1.5,2.2-1.1C327.9,39.7,328.3,40.3,328.2,41z"/>
<path class="st1" d="M114.4,38.1l-2.1-0.7c-0.1-0.7,0.5-1,0.8-1.4s1.4,0.2,1.4,0.9C114.5,37.3,114.5,37.7,114.4,38.1z"/>
<path class="st1" d="M307.7,110.9c-0.5-0.2-0.7-0.7-0.6-1.1c0.2-1,0.7-1.9,1.5-2.6c0,0.4,0.1,0.6,0.1,0.8
	C308.4,108.9,308.6,110.1,307.7,110.9z"/>
<path class="st1" d="M334.7,37c-0.5,0.7-1.5,1-2.3,0.6c-0.7-0.2-0.8-0.3-0.7-1.2C332.7,36.5,333.8,36.3,334.7,37z"/>
<path class="st1" d="M206.5,88.8l0.9-0.7c0.2,0.4,0.5,0.6,0.5,0.9c0,0.5-0.1,1-0.3,1.5c-0.1,0.2-0.3,0.3-0.5,0.3
	c-0.2-0.1-0.3-0.3-0.4-0.5C206.7,89.9,206.6,89.4,206.5,88.8z"/>
<path class="st1" d="M332.5,143l1.2-0.5c0.1,0,0.1-0.1,0.2-0.1c0.7,0.5,0.9-0.2,1.2-0.6s0.4-0.6,0.8-0.5l-0.3-0.8
	c0.2,0.1,0.3,0.1,0.3,0.1c0.5,0.6,0.5,0.6,0,1.1c-0.3,0.4-0.6,0.8-1,1.2C334.2,143.6,333.2,143.6,332.5,143z"/>
<path class="st1" d="M309,148.6c0.5-0.5,1.1-1,1.6-1.6c0.7-0.6,1.6-0.9,2.5-0.9c-0.6,0.6-1.3,1.1-2,1.6
	C310.4,148.1,309.8,148.7,309,148.6z"/>
<path class="st1" d="M245.6,27.2c-0.1,0.2-0.2,0.4-0.3,0.4c-1.2,0.1-2.2,1-3.5,0.6l-0.2-0.8c0.3,0,0.7,0,1,0.1
	c0.6,0.2,1.3,0.1,1.7-0.5c0.1-0.1,0.3-0.1,0.4-0.1C245,27,245.3,27.1,245.6,27.2z"/>
<path class="st1" d="M96.4,31.1c0.6-0.6,1.5-0.7,2.2-0.3c0.2-0.2,0.5-0.4,0.7-0.5c0.3-0.1,0.6-0.1,0.8-0.1c0.2,0.1,0.4,0.2,0.4,0.4
	c0.1,0.3-0.1,0.5-0.4,0.5c-0.1,0-0.3,0.1-0.4,0.1c-0.6,0-1.2-0.5-1.7,0.1C97.7,30.9,97.1,31.3,96.4,31.1z"/>
<path class="st1" d="M255.3,27.1c-0.2,0.1-0.4,0.2-0.5,0.2c-0.2,0-0.3,0.1-0.5,0.1V28c-0.4,0-0.8-0.1-1.2-0.2
	c-0.3-0.2-0.2-0.5,0-0.8C253.6,26,254.4,26,255.3,27.1z"/>
<path class="st1" d="M107,35.7l-1.3,0.6l-0.1-0.2l0.2-0.4l-0.8-0.9l0.3-0.5l0.6-0.2c0.6-0.3,0.7,0.4,1,0.6
	C107,35,106.9,35.5,107,35.7L107,35.7z"/>
<path class="st1" d="M212.8,92.2l-0.2,1.6c-0.9-0.3-1.8-0.8-2.5-1.6H212.8z"/>
<path class="st1" d="M360.4,45.1l1.2-0.9l1.5,0.4c0.4,0.1,0.6,0.3,0.4,0.7h-3L360.4,45.1z"/>
<path class="st1" d="M103.7,41.7c-1.4,0-1.9-0.6-1.4-1.9C103,40.1,103.6,40.8,103.7,41.7z"/>
<path class="st1" d="M61.6,65.4c-1.3,0.9-1.8,0.9-2.2,0C61.2,64.6,61.2,64.6,61.6,65.4z"/>
<path class="st1" d="M79,70.7h0.9l0.7,2.3C79.5,72.6,79.3,71.7,79,70.7z"/>
<path class="st1" d="M346.7,159.5c0.1,0,0.1-0.1,0.2-0.1l2.5,2.6C348,161.8,347,160.8,346.7,159.5z"/>
<path class="st1" d="M115.6,32.4c-0.4,0.8-0.4,0.8-3,0.4C113.5,32.3,114.6,32.1,115.6,32.4z"/>
<path class="st1" d="M282.2,29.8c-0.5-0.5-0.2-0.9,0.1-1.3c0.7,0,1.4,0.4,1.7,1L282.2,29.8z"/>
<path class="st1" d="M313.9,133.7l0.1,1h0.4v1.1l-0.6-0.1l-0.1,0.9C313.1,135.7,313.2,134.5,313.9,133.7z"/>
<path class="st1" d="M256.8,27.2l-0.6-0.5c0.1-0.1,0.1-0.3,0.1-0.3c0.6-0.2,1.2-1,2.1-0.3L256.8,27.2z"/>
<path class="st1" d="M207.3,87.9c-1-0.6-1-1.2,0.1-2C207.8,86.6,207.7,87.3,207.3,87.9z"/>
<path class="st1" d="M209.9,69.8l-1-0.9c0.2-0.2,0.3-0.3,0.4-0.3c0.3,0,0.6,0,0.6-0.4c0-0.1,0.2-0.1,0.3-0.1c0.1,0,0.2,0.1,0.2,0.2
	c0,0.3,0,0.7,0,1C210.3,69.3,210.1,69.5,209.9,69.8z"/>
<path class="st1" d="M310.6,122.2c0.9-0.2,0.9-0.2,0.9,0.4c0.1,0.7,0.1,1.4,0.1,2.2c-0.4-0.2-0.4-0.2-0.5-0.7
	C311.1,123.3,310.9,122.7,310.6,122.2z"/>
<path class="st1" d="M306.4,123.8c0,0.3,0,0.7-0.2,0.9c-0.6,0.6-0.9,1.7-2,1.9c0-0.1,0-0.3,0.1-0.4c0.7-0.5,1.2-1.2,1.5-2
	c0.1-0.2,0.2-0.3,0.3-0.5L306.4,123.8z"/>
<path class="st1" d="M309.4,123.9c0.3-0.1,0.4,0.4,0.8,0.2c0.1-0.1,0.2,0,0.1,0.6l0,0c-0.5,0.2-0.8,0.6-0.8,1.1l-1-0.8
	C309,125,309.4,124.5,309.4,123.9C309.4,123.9,309.4,123.9,309.4,123.9L309.4,123.9z"/>
<path class="st1" d="M368.6,57.8v-0.5l1.3-0.2l1.2,0.9l-0.4,0.6l-0.8-1L368.6,57.8z"/>
<path class="st1" d="M249.5,26.2L250,26l-0.6-0.6c0.5-0.4,1.2-0.4,1.7,0C250.6,26.4,250.6,26.4,249.5,26.2z"/>
<path class="st1" d="M328,36.5c0.3,0,0.5,0.1,0.8,0.1c0.2,0.1,0.4,0.2,0.4,0.3c0,0.2,0,0.4-0.2,0.6c-0.2,0.2-0.4,0.3-0.7,0.4
	C327.9,37.4,327.9,37.4,328,36.5z"/>
<path class="st1" d="M252.2,27.5c-0.3,0.3-0.5,0.9-1.1,0.5c-0.1,0-0.2,0-0.2,0c-0.3,0.5-0.6,0.2-1.1,0.2c0.3-0.6,1-0.4,1.1-0.6
	C251.4,27,251.8,27.6,252.2,27.5z"/>
<path class="st1" d="M140.9,76.2c1,0,1.9,0.5,2.6,1.3C142.5,77.5,141.6,77,140.9,76.2z"/>
<path class="st1" d="M309.3,146.1c-0.8,0.5-1.9,0.6-2.7,0.2c0.3-0.4,0.3-0.4,1.3-0.3L309.3,146.1z"/>
<path class="st1" d="M252.2,45.6l1.7,1.2c-0.9,0.4-1.4-0.2-1.9-0.4C251.7,46.2,251.9,45.8,252.2,45.6z"/>
<path class="st1" d="M338.9,144.3c-1-0.3-1.3-0.8-1.4-2.1C338,143,338.8,143.3,338.9,144.3z"/>
<path class="st1" d="M146.8,198l-2.1,1c0.1-0.6,0.4-1.1,0.9-1.4C145.8,197.5,146.2,197.9,146.8,198z"/>
<path class="st1" d="M304.8,145.7l1.1,0.6v0.2c-0.5,0.1-1.1,0.2-1.6,0.2c-0.1,0-0.3-0.2-0.4-0.3c0.1-0.1,0.3-0.2,0.4-0.2
	C304.7,146.3,304.9,146.3,304.8,145.7z"/>
<path class="st1" d="M128.3,114.9c0.7-0.3,1.5-0.2,2,0.3C129.5,115.9,129.4,115.9,128.3,114.9z"/>
<path class="st1" d="M131.6,49.4c-0.3,0.3-0.5,0.7-0.8,0.8s-0.6-0.3-0.5-0.6s0.1-0.7,0.6-0.7C131,48.9,131.3,49.1,131.6,49.4z"/>
<path class="st1" d="M144.8,80.4l-0.7,1.9c-0.3,0-0.5-0.2-0.5-0.5c0,0,0-0.1,0-0.1c0.1-0.6,0.5-1.1,0.9-1.4L144.8,80.4z"/>
<path class="st1" d="M151.4,79.1c0.4,0,0.8-0.2,0.8-0.9c0.1,0.4,0.2,0.8,0.3,1.2c0,0.2-0.1,0.4-0.2,0.6c-0.2,0.2-0.3,0-0.4-0.2
	c-0.2,0-0.3,0-0.5,0L151.4,79.1L151.4,79.1z"/>
<path class="st1" d="M229.8,95.5c0.2,0.5-0.1,0.7-0.4,0.9c-0.4,0.2-0.8,0.1-1.1-0.2c0,0,0,0,0,0C228.7,95.6,229.3,95.6,229.8,95.5z"
	/>
<path class="st1" d="M316.2,140.2L314,140v-0.3c0.7-0.2,1.5-0.1,2.2,0.3L316.2,140.2z"/>
<path class="st1" d="M213.4,48.2l0.8,0.1c-0.3,0.9-0.6,1-1.3,0.7c0.1-0.1,0.2-0.3,0.3-0.4C213.3,48.5,213.4,48.4,213.4,48.2z"/>
<path class="st1" d="M92.5,36.5l-0.7-0.2l1.1-1.3C93,35.6,93,35.6,92.5,36.5z"/>
<path class="st1" d="M48.1,61.3c0.3-0.1,0.6-0.2,0.9-0.3c0.2,0,0.4,0.1,0.6,0.2c-0.1,0.2-0.2,0.5-0.4,0.5c-0.4,0-0.7,0-1.1-0.1
	L48.1,61.3z"/>
<path class="st1" d="M244.2,47.2l-0.5,1c-0.6-0.4-0.8-0.7-0.6-1S243.8,47,244.2,47.2z"/>
<path class="st1" d="M220.4,95.5c0.8,0.3,1.7-0.1,2.4,0.4C222,96.3,221.1,96.1,220.4,95.5z"/>
<path class="st1" d="M219,65.1c-0.1-0.1-0.1-0.2-0.2-0.2c0-0.1-0.1-0.2-0.1-0.4c0.4-0.2,0.7-0.5,1.2-0.2C220,64.9,219.5,65,219,65.1
	z"/>
<path class="st1" d="M96.2,31.9c-0.3,0.2-0.5,0.4-0.7,0.4c-0.3,0-0.6-0.2-0.6-0.5c0.1-0.2,0.3-0.4,0.5-0.4
	C95.7,31.3,95.9,31.6,96.2,31.9z"/>
<path class="st1" d="M122.8,58.3l1.7-0.9C124.1,58.2,123.7,58.4,122.8,58.3z"/>
<path class="st1" d="M368.6,62c-0.4,0.3-0.6,0.7-1.1,0.4c-0.2-0.1-0.2-0.4-0.1-0.6c0,0,0.1-0.1,0.1-0.1
	C367.9,61.4,368.2,61.7,368.6,62z"/>
<path class="st1" d="M182.5,36.3l1,0.6c-0.4,0.2-0.7,0.6-1.1,0.3c-0.2-0.2-0.3-0.5-0.1-0.7C182.3,36.3,182.4,36.3,182.5,36.3z"/>
<path class="st1" d="M216.4,65.6l-0.6,1.4C215.3,66.4,215.4,66,216.4,65.6z"/>
<path class="st1" d="M335.4,44l1,1.1l-1.4,0.1L335.4,44z"/>
<path class="st1" d="M309.4,123.9c-0.2,0.1-0.4,0.2-0.6,0.3s-0.2,0.1-0.5,0.2l0.2-1.2C309.1,123.2,309.3,123.5,309.4,123.9
	L309.4,123.9z"/>
<path class="st1" d="M307.5,148.1c-0.7,0.3-1-0.3-1.6-0.5C306.7,147.3,307,147.4,307.5,148.1z"/>
<path class="st1" d="M307.7,121c0.1,0.4,0.3,0.8,0.4,1.2l-0.2,0.1l-1-1.3L307.7,121L307.7,121z"/>
<path class="st1" d="M141,80.6c0.1,0,0.3-0.1,0.4-0.1c0.2,0.5,0.8,0.4,1.2,0.5c0.2,0,0.4,0.2,0.4,0.4c0,0,0,0.1,0,0.1l-1.1-0.1l0,0
	L141,80.6L141,80.6z"/>
<path class="st1" d="M358.7,157.2c0.1-0.5,0.5-0.5,0.9-0.4c0.1,0,0.2,0.4,0.1,0.5S359.3,157.5,358.7,157.2z"/>
<path class="st1" d="M144,197.7l0.6,0c0.1,0,0.1,0,0.2,0.1c-0.3,0.5-0.7,0.8-1.3,0.9L144,197.7z"/>
<path class="st1" d="M294.8,139.6c-0.7-0.1-0.5-0.9-1-1.2C294.6,138.3,294.8,138.7,294.8,139.6z"/>
<path class="st1" d="M346.2,64.6c-0.2-0.5,0-1,0.5-1.2c0,0,0.1,0,0.1,0C347,64.1,346.3,64.2,346.2,64.6z"/>
<path class="st1" d="M59,113.7l-0.6,0.4c-0.1-0.1-0.2-0.1-0.2-0.2c-0.2-0.4,0-0.6,0.4-0.9L59,113.7z"/>
<path class="st1" d="M131.1,197.9l0.2-1.3l0.6,0.7l-0.6,0.7L131.1,197.9z"/>
<path class="st1" d="M117.2,32.9l0.2-1h0.2c0.1,0.2,0.3,0.4,0.3,0.6C118,32.8,117.7,32.9,117.2,32.9z"/>
<path class="st1" d="M313.3,140.2c-0.4,0.3-1,0.1-1.3-0.2C312.5,139.8,312.9,139.4,313.3,140.2z"/>
<path class="st1" d="M192.8,65.4c0.1-0.6,0-1.1,0.8-1.3C193.4,64.7,193.5,65.2,192.8,65.4z"/>
<path class="st1" d="M319.4,144.2l0.2-1.3C320.1,143.2,320.1,143.5,319.4,144.2z"/>
<path class="st1" d="M215.4,47.6l-0.7,0.3c-0.1-0.6-0.1-0.6,0.6-1.1C215.3,47.2,215.4,47.4,215.4,47.6L215.4,47.6z"/>
<path class="st1" d="M331.4,83.8l1.5-1.1c0,0.9-1,0.8-1.3,1.3L331.4,83.8z"/>
<path class="st1" d="M268.8,42.4c0.7-0.9,0.7-0.9,1.4-0.5L268.8,42.4z"/>
<path class="st1" d="M309.5,141.5l0.4-0.1c-0.3,0.4,0.2,0.8-0.3,1.2l-0.5-0.5L309.5,141.5L309.5,141.5z"/>
<path class="st1" d="M138.9,115h1.1C139.6,115.7,139.5,115.7,138.9,115z"/>
<path class="st1" d="M128.3,46c-0.5,0.8-0.5,0.8-1.4,0.4L128.3,46z"/>
<path class="st1" d="M132.9,88.1h1.2v0.2l-1.4,0.3L132.9,88.1L132.9,88.1z"/>
<path class="st1" d="M132.5,189.3c-0.4,0.2,0.4,1-0.5,0.9C131.7,189.5,131.7,189.5,132.5,189.3z"/>
<path class="st1" d="M51.5,69.5L50.1,70C50.5,69.2,50.6,69.2,51.5,69.5z"/>
<path class="st1" d="M145.4,81.2c-0.1,0.6-0.1,0.6-0.6,0.9C144.7,81.5,144.7,81.5,145.4,81.2z"/>
<path class="st1" d="M246.4,27.8c0.5-0.3,0.9-0.5,1.2,0.2C247,28.3,246.7,28,246.4,27.8z"/>
<path class="st1" d="M262.9,39.7c0.5,0.8,0.5,0.8-0.4,0.9L262.9,39.7z"/>
<path class="st1" d="M349.8,154.5c0.3,0.2,0.5,0.2,0.5,0.3s0.1,0.5,0,0.6c-0.3,0.2-0.4-0.1-0.5-0.4
	C349.8,154.9,349.8,154.7,349.8,154.5z"/>
<path class="st1" d="M343.1,147.4c-0.6,0.3-0.6,0.3-0.9-0.2L343.1,147.4z"/>
<path class="st1" d="M109.5,27.8l0.5,0.9C109.4,28.5,109.4,28.5,109.5,27.8z"/>
<path class="st1" d="M210.3,69.9c-0.6,0.8-0.6,0.8-1.1,0.3L210.3,69.9z"/>
<path class="st1" d="M249.4,24.4l1-0.3c-0.1,0.4-0.5,0.7-1,0.6c0,0,0,0,0,0V24.4z"/>
<path class="st1" d="M360.8,155.1c-0.1,0.8-0.6,0.8-1.1,0.9C360,155.4,360.4,155.3,360.8,155.1z"/>
<path class="st1" d="M252.2,28.8c0.2-0.4,0.5-0.7,0.7-0.3c0.1,0.1,0,0.3,0,0.4L252.2,28.8z"/>
<path class="st1" d="M349.7,191.6l0.5,0.9l-0.7,0.2L349.7,191.6z"/>
<path class="st1" d="M105.9,34.2l-0.6,0.2c-0.2-0.2-0.3-0.5,0-0.6S106,33.8,105.9,34.2z"/>
<path class="st1" d="M141.1,57l0.9,0.1c-0.4,0.2-0.5,0.4-0.7,0.4s-0.2-0.2-0.3-0.4L141.1,57z"/>
<path class="st1" d="M351.6,46.4c-0.2,0.1-0.3,0.2-0.3,0.1c-0.2-0.1-0.4-0.2-0.5-0.3l0.1-0.2c0.2,0,0.4,0.1,0.6,0.1
	C351.4,46.2,351.5,46.3,351.6,46.4z"/>
<path class="st1" d="M342,146l-0.9-0.7C341.8,145.1,341.9,145.6,342,146z"/>
<path class="st1" d="M271,40.9c-0.2,0.1-0.3,0.3-0.4,0.3c-0.2-0.1-0.3-0.2-0.5-0.3c0.1-0.1,0.3-0.3,0.4-0.3S270.8,40.7,271,40.9z"/>
<path class="st1" d="M104.7,32.9c-0.2-0.2-0.6-0.4-0.4-0.9C104.8,32.2,104.8,32.5,104.7,32.9z"/>
<path class="st1" d="M116,137l-0.6,0.4v-1.1L116,137z"/>
<path class="st1" d="M296.6,139.8l-0.8,0.1c0-0.1-0.1-0.3,0-0.3C295.9,139.3,296.1,139.3,296.6,139.8z"/>
<path class="st1" d="M117.5,34.4C117.5,34.4,117.5,34.4,117.5,34.4c-0.1-0.3-0.4-0.6,0-0.7c0.1,0,0.2,0.1,0.3,0.2
	C117.9,34.2,117.7,34.4,117.5,34.4L117.5,34.4z"/>
<path class="st1" d="M145.1,213.5l0.9-0.5l0.1,0.2l-0.9,0.5L145.1,213.5z"/>
<path class="st1" d="M202.1,89.6l0.4,0.5l-0.6,0.5l0.1-1H202.1z"/>
<path class="st1" d="M218.7,44.6l1-0.5c-0.1,0.4-0.5,0.7-0.9,0.7L218.7,44.6z"/>
<path class="st1" d="M225.2,30.6l0.9,0.1v0.2h-0.9L225.2,30.6z"/>
<path class="st1" d="M281,26.1l1-0.1c-0.3,0.5-0.6,0.5-0.9,0.4L281,26.1z"/>
<path class="st1" d="M322,152.5c-0.1,0.1-0.2,0.2-0.3,0.2s-0.2-0.1-0.2-0.2l0.3-0.3L322,152.5z"/>
<path class="st1" d="M250.7,158.9c0.1,0.2,0.2,0.5-0.1,0.6c-0.1,0-0.2,0-0.3,0C250.2,159.1,250.4,159,250.7,158.9z"/>
<path class="st1" d="M127.6,58.4l-0.2,0.8c-0.6-0.5-0.2-0.6,0-0.9L127.6,58.4z"/>
<path class="st1" d="M316.9,136.6c-0.5,0.4-0.7,0.3-1-0.1L316.9,136.6z"/>
<path class="st1" d="M217.1,62.1l-0.4-0.4c0.1-0.1,0.2-0.2,0.2-0.2c0.2,0.1,0.3,0.2,0.4,0.3L217.1,62.1z"/>
<path class="st1" d="M126.3,72.6l-1-0.4C125.8,72,125.8,72,126.3,72.6z"/>
<path class="st1" d="M48,71.8c0.2-0.2-0.1-1,0.7-0.6L48,71.8z"/>
<path class="st1" d="M144,123.8l0.1,0.8c-0.1,0-0.2,0-0.3,0C143.6,124.3,143.5,124.1,144,123.8z"/>
<path class="st1" d="M245,28.8l0.6-0.4C245.8,29.2,245.4,29,245,28.8z"/>
<path class="st1" d="M193.2,65.8l0.5,1C193.3,66.7,193.1,66.2,193.2,65.8C193.2,65.8,193.2,65.8,193.2,65.8z"/>
<path class="st1" d="M302.3,145.7l-0.2-0.4l0.7,0.1C302.8,145.9,302.6,146.1,302.3,145.7L302.3,145.7z"/>
<path class="st1" d="M310.3,124.8L310.3,124.8l0.6,0.2c-0.1,0.1-0.2,0.2-0.2,0.2C310.3,125.3,310.3,125,310.3,124.8L310.3,124.8z"/>
<path class="st1" d="M220.1,45.4l-0.3-0.3c0.1-0.1,0.2-0.2,0.3-0.2c0,0,0.2,0.1,0.2,0.2C220.3,45.1,220.2,45.2,220.1,45.4z"/>
<path class="st1" d="M323.2,70.4c-0.1,0.1-0.3,0.2-0.4,0.2s-0.2-0.2-0.3-0.3c0.1-0.1,0.2-0.2,0.3-0.2s0.3,0.1,0.5,0.2L323.2,70.4z"
	/>
<path class="st1" d="M334.2,82l-0.4,0.6l-0.2-0.1l0.4-0.6L334.2,82z"/>
<path class="st1" d="M301.1,166.3l-0.2,0.3l-0.4-0.7L301.1,166.3z"/>
<path class="st1" d="M107.3,31.9l0.7,0.2c0,0.1,0,0.2-0.1,0.2C107.6,32.6,107.4,32.5,107.3,31.9z"/>
<path class="st1" d="M216.6,28.2c-0.3,0.1-0.7,0-0.9-0.3C216.1,27.9,216.4,27.8,216.6,28.2L216.6,28.2z"/>
<path class="st1" d="M179.3,52.2l-0.6-0.1v-0.2l0.6,0.1V52.2z"/>
<path class="st1" d="M141.2,202.2h-0.6V202h0.6L141.2,202.2z"/>
<path class="st1" d="M124.5,111.3c0-0.2,0-0.4,0-0.5h0.2c0,0.2,0.1,0.4,0.1,0.6L124.5,111.3z"/>
<path class="st1" d="M132.8,49.5c-0.2,0.1-0.3,0.2-0.4,0.1s-0.2-0.2-0.2-0.2c0.1-0.1,0.2-0.2,0.3-0.2S132.6,49.3,132.8,49.5z"/>
<path class="st1" d="M310.2,123.1l-0.6-0.2l0.1-0.2l0.7,0.2L310.2,123.1z"/>
<path class="st1" d="M129,108.1c-0.2,0.1-0.4,0.1-0.4,0.1c-0.1-0.1-0.2-0.2-0.2-0.3c0,0,0.1-0.2,0.2-0.2
	C128.7,107.9,128.8,108,129,108.1z"/>
<path class="st1" d="M288.1,137.5l0.3,0.8C287.9,138.1,287.9,137.8,288.1,137.5z"/>
<path class="st1" d="M322,177.6h0.7C322.5,178,322.3,177.9,322,177.6z"/>
<path class="st1" d="M300.7,39c0,0.1,0,0.3-0.1,0.3s-0.3,0.1-0.5-0.1l0.5-0.4L300.7,39z"/>
<path class="st1" d="M144.2,214.3l-0.5-0.1v-0.2l0.6,0.1L144.2,214.3z"/>
<path class="st1" d="M334.5,139.9l0.7,0.3l-0.1,0.2l-0.7-0.4L334.5,139.9z"/>
<path class="st1" d="M339.4,144.1l0.7,0.7C339.6,144.9,339.5,144.6,339.4,144.1z"/>
<path class="st1" d="M300.7,143.5h0.6v0.2h-0.6V143.5z"/>
<path class="st1" d="M127.8,66.8l-0.1,0.7h-0.2v-0.7H127.8z"/>
<path class="st1" d="M47.3,71.6L46.8,72l-0.1-0.1l0.4-0.4L47.3,71.6z"/>
<path class="st1" d="M303.8,145.7l-0.1,0.5l-0.3-0.1l0.1-0.5L303.8,145.7z"/>
<path class="st1" d="M340.3,146.2c-0.1-0.2-0.1-0.3-0.2-0.5c0,0,0.1-0.1,0.1-0.1l0.3,0.4L340.3,146.2z"/>
<path class="st1" d="M216.1,46.1l0.2-0.7C216.6,45.9,216.6,45.9,216.1,46.1L216.1,46.1z"/>
<path class="st1" d="M216.1,46.1c0,0.1,0,0.3,0,0.3c-0.1,0-0.3,0-0.4,0c0-0.1,0-0.3,0.1-0.3S216.1,46.1,216.1,46.1L216.1,46.1z"/>
<path class="st1" d="M61.6,64.1L61,64.3C61.1,63.7,61.1,63.7,61.6,64.1z"/>
<path class="st1" d="M127,35.4l0.6-0.2l0.1,0.1c-0.1,0.1-0.2,0.2-0.2,0.3s-0.2,0-0.4,0L127,35.4z"/>
<path class="st1" d="M95.8,33.7c-0.1,0.1-0.2,0.2-0.3,0.2c0,0-0.2-0.1-0.2-0.2c0-0.1,0.1-0.2,0.2-0.2C95.5,33.5,95.6,33.6,95.8,33.7
	z"/>
<path class="st1" d="M251.3,23.9c-0.1,0.1-0.2,0.2-0.2,0.2c-0.1-0.1-0.2-0.2-0.2-0.2c0.1,0,0.2-0.1,0.2-0.1S251.2,23.8,251.3,23.9z"
	/>
<path class="st1" d="M287,135.1l-0.5-0.6l0.6,0.4L287,135.1z"/>
<path class="st1" d="M314.4,133.9l-0.1-0.5l0.2-0.1l0.2,0.5L314.4,133.9z"/>
<path class="st1" d="M344,148.3l0.5,0.3l-0.1,0.1l-0.5-0.2L344,148.3z"/>
<path class="st1" d="M249.2,26.1l-0.5-0.1v-0.2l0.5,0.1V26.1z"/>
<path class="st1" d="M97.8,87.9l-0.6-0.7c0,0,0.1-0.1,0.1-0.1C97.8,87.1,98,87.2,97.8,87.9z"/>
<path class="st1" d="M77.7,65.9l-0.2-0.4h0.2L77.7,65.9L77.7,65.9z"/>
<path class="st1" d="M125,82.2l-0.6-0.2v-0.2l0.6,0.2L125,82.2z"/>
<path class="st1" d="M317.4,213.1c-18.5,0-36.6-4.8-52.6-13.9c-32.7,18.6-72.7,18.5-105.4-0.1C108.3,228.3,43.2,210.5,14,159.4
	S2.7,43.1,53.8,14c32.7-18.7,72.9-18.7,105.6,0c32.7-18.6,72.7-18.6,105.4-0.1C316-15.2,381,2.7,410.1,53.9
	c29.1,51.2,11.2,116.2-40,145.3C354.1,208.3,335.9,213.1,317.4,213.1z M264.8,197.1l0.5,0.3c50.1,28.8,114.1,11.5,142.9-38.6
	c28.8-50.1,11.5-114.1-38.6-142.9c-32.3-18.5-72-18.5-104.3,0l-0.5,0.3l-0.5-0.3C232-2.8,192.2-2.7,159.9,15.9l-0.5,0.3l-0.5-0.3
	C108.8-13,44.8,4.2,16,54.3s-11.7,114.1,38.4,143c32.4,18.7,72.2,18.7,104.6,0l0.5-0.3l0.5,0.3c32.3,18.6,72.1,18.7,104.5,0.1
	L264.8,197.1z M211,112.8c-0.1-2-0.2-4-0.2-6.2s0.1-4.3,0.2-6.2h1.9c0.1,2,0.2,4.1,0.2,6.2s-0.1,4.2-0.2,6.2L211,112.8z"/>
<path class="st2" d="M212.2,106.6c0,2.1-0.1,4.1-0.2,6.2c-0.1-2-0.2-4.1-0.2-6.2c0-2.1,0.1-4.1,0.2-6.2
	C212.1,102.4,212.2,104.5,212.2,106.6z"/>
<path class="st2" d="M212.2,106.6c0,2.1-0.1,4.1-0.2,6.2c-0.1-2-0.2-4.1-0.2-6.2c0-2.1,0.1-4.1,0.2-6.2
	C212.1,102.4,212.2,104.5,212.2,106.6z"/>
<path class="st2" d="M212.2,106.6c0,2.1-0.1,4.1-0.2,6.2c-0.1-2-0.2-4.1-0.2-6.2c0-2.1,0.1-4.1,0.2-6.2
	C212.1,102.4,212.2,104.5,212.2,106.6z"/>
</svg>
